<?xml version="1.0" encoding="UTF-8"?>
<svg version="1.1" xmlns="http://www.w3.org/2000/svg" width="1024" height="1024">
<path d="M0 0 C1.73680334 1.44975843 3.48737519 2.88073939 5.2421875 4.30859375 C12.7761855 10.51652807 19.7558904 17.24270853 26.6796875 24.12109375 C27.55133545 24.98347656 28.4229834 25.84585938 29.32104492 26.734375 C35.25933365 32.70148214 40.61079016 38.98925168 45.8671875 45.55859375 C46.74243452 46.59775577 47.62256365 47.63286941 48.51171875 48.66015625 C107.32928367 117.12168227 133.48079718 210.85423974 126.8515625 299.94067383 C119.72239368 385.60209289 81.35358839 463.21759983 20.9921875 523.62109375 C20.07566406 524.54986328 19.15914062 525.47863281 18.21484375 526.43554688 C12.07807244 532.58526496 5.6663819 538.15734581 -1.1328125 543.55859375 C-2.34141303 544.55904132 -3.54755852 545.56247072 -4.75 546.5703125 C-20.03891902 559.20551531 -36.83178168 569.89988303 -54.1328125 579.55859375 C-54.84518066 579.95997559 -55.55754883 580.36135742 -56.29150391 580.77490234 C-93.97396935 601.84870639 -136.3598206 615.13662144 -179.1328125 620.55859375 C-179.780224 620.64472931 -180.4276355 620.73086487 -181.09466553 620.8196106 C-195.27240354 622.67303677 -209.34828465 622.91809673 -223.6328125 622.87109375 C-224.78166931 622.86927094 -225.93052612 622.86744812 -227.11419678 622.86557007 C-243.96997155 622.82053253 -260.48151741 622.40366417 -277.1328125 619.55859375 C-278.1832373 619.3869873 -279.23366211 619.21538086 -280.31591797 619.03857422 C-347.77384628 607.80729587 -411.44174947 577.74984314 -461.5234375 530.984375 C-463.77154273 528.89444484 -466.05432161 526.87016636 -468.3828125 524.87109375 C-474.37636284 519.65931084 -479.87877823 514.01511903 -485.04296875 507.984375 C-486.67764607 506.08692712 -488.33164033 504.21547042 -490.00390625 502.3515625 C-498.42716344 492.89733372 -505.92188426 482.96074129 -513.1328125 472.55859375 C-513.58253418 471.91422363 -514.03225586 471.26985352 -514.49560547 470.60595703 C-524.66845352 455.9649137 -533.52680094 440.49942967 -541.23291016 424.42773438 C-542.09541081 422.63627887 -542.97889407 420.85497126 -543.86328125 419.07421875 C-565.93111802 373.62558467 -576.3440938 322.4724654 -576.3828125 272.12109375 C-576.38348724 271.32100891 -576.38416199 270.52092407 -576.38485718 269.69659424 C-576.31707152 218.47217373 -564.87976755 167.94083729 -543.1328125 121.55859375 C-542.72949707 120.69685547 -542.32618164 119.83511719 -541.91064453 118.94726562 C-530.65521757 95.15707659 -516.4819172 73.14833083 -500.1328125 52.55859375 C-499.02486328 51.15867187 -499.02486328 51.15867187 -497.89453125 49.73046875 C-489.39857031 39.16710701 -480.12234541 29.44883935 -470.58334351 19.83389282 C-469.17437099 18.41300373 -467.76937403 16.98817587 -466.36450195 15.56323242 C-460.26538126 9.45648033 -453.89323519 3.91794333 -447.1328125 -1.44140625 C-445.8198808 -2.51350524 -444.50847718 -3.58748075 -443.19921875 -4.6640625 C-435.76853081 -10.70950812 -428.22563214 -16.2975032 -420.1328125 -21.44140625 C-418.75733597 -22.34041717 -417.38237238 -23.24021317 -416.0078125 -24.140625 C-371.05991291 -53.34389806 -321.10335078 -71.01215824 -268.1328125 -78.44140625 C-267.31683594 -78.56 -266.50085938 -78.67859375 -265.66015625 -78.80078125 C-171.67559437 -91.80688207 -72.21943303 -60.47289874 0 0 Z " fill="#FEB700" transform="translate(757.1328125,209.44140625)"/>
<path d="M0 0 C3.14857062 1.55826306 5.39482742 3.9280423 7.82959843 6.4033165 C8.68002031 7.24989347 8.68002031 7.24989347 9.54762244 8.11357301 C11.44949992 10.01050089 13.3404425 11.91796808 15.231637 13.82554245 C16.59117132 15.18592279 17.95136619 16.54564327 19.31217289 17.90475082 C23.00864903 21.6003646 26.69578874 25.3051694 30.38135719 29.011657 C34.23305831 32.88208453 38.09323039 36.74404425 41.95252323 40.60689926 C49.26118717 47.92489552 56.56216877 55.25050704 63.86044097 62.57886547 C72.16885441 70.92078593 80.4857661 79.25421132 88.80341291 87.58692372 C105.91495663 104.72984336 123.01576669 121.88343704 140.10956669 139.04404831 C144.11913139 137.43545867 146.80934068 134.61810444 149.79163456 131.60248947 C150.35449893 131.04133395 150.91736331 130.48017843 151.49728417 129.90201819 C153.38292232 128.0196754 155.26132127 126.13027133 157.13984013 124.24082565 C158.48973709 122.89036459 159.84007452 121.54034368 161.19081974 120.19073105 C164.85818119 116.52394415 168.51933729 112.85101714 172.1794281 109.17697477 C176.00488454 105.33902803 179.83599374 101.50673261 183.66651249 97.67383957 C190.92004162 90.41409067 198.16845682 83.14925792 205.41505837 75.8825947 C213.66498193 67.61032761 221.92057546 59.34372907 230.17665529 51.07760692 C247.16061868 34.07273029 264.13743251 17.06073081 281.10956669 0.04404831 C284.35820249 1.47264992 286.53784378 3.21381069 289.05202579 5.70562363 C290.21097355 6.84744095 290.21097355 6.84744095 291.39333439 8.01232529 C292.23144154 8.84819672 293.06954868 9.68406815 293.93305302 10.54526901 C294.82281834 11.42510452 295.71258366 12.30494003 296.62931156 13.21143723 C299.06485951 15.62279954 301.49569745 18.03869969 303.92362142 20.45772576 C305.44037626 21.96861261 306.95829485 23.47832066 308.47657681 24.98767281 C313.22624437 29.71001643 317.97190759 34.43632993 322.71179658 39.1684888 C328.18490156 44.63261847 333.67085538 50.08340112 339.16832429 55.52301532 C343.4175758 59.72908948 347.65528174 63.94656867 351.8843376 68.17294759 C354.41067508 70.6971862 356.94166558 73.21630266 359.48472881 75.72369957 C362.31750615 78.51751051 365.12620615 81.33477055 367.93305302 84.15464401 C368.78128132 84.98444275 369.62950962 85.81424149 370.50344181 86.66918564 C371.64124088 87.82369217 371.64124088 87.82369217 372.80202579 89.00152206 C373.46881761 89.66538075 374.13560942 90.32923944 374.82260704 91.01321507 C376.10956669 93.04404831 376.10956669 93.04404831 376.14886951 95.43406105 C374.74342715 98.96352962 372.45596998 101.23729292 369.78826237 103.8463707 C368.94781072 104.69194889 368.94781072 104.69194889 368.09038025 105.55460948 C366.20958818 107.4419926 364.31485147 109.31471956 362.41986942 111.18784714 C361.06912637 112.53746199 359.71926333 113.88795808 358.37021732 115.23926926 C354.7036775 118.90695819 351.02492273 122.56217126 347.34388709 126.21530366 C343.49970024 130.03450993 339.66681456 133.86502316 335.83272648 137.69436264 C328.56984602 144.94480354 321.29682796 152.18498652 314.02013212 159.42155904 C305.73669966 167.66030445 297.46460286 175.91039123 289.1934489 184.16146052 C272.17809059 201.13499228 255.14851333 218.09419825 238.10956669 235.04404831 C239.71228715 239.03701976 242.50714819 241.70159472 245.51989079 244.66123581 C246.07766832 245.21719437 246.63544586 245.77315292 247.21012574 246.34595871 C249.08101859 248.20843522 250.95894632 250.0636547 252.83686161 251.91904831 C254.17912781 253.25256557 255.52091827 254.58656182 256.86226749 255.92100143 C259.75158463 258.79382552 262.64382802 261.6636598 265.53823757 264.531353 C270.11090604 269.06270804 274.67437758 273.60324776 279.23610783 278.14561081 C292.20900287 291.06088113 305.19185574 303.96608399 318.18940067 316.85654831 C325.3676266 323.97579377 332.53694465 331.10388504 339.69651395 338.24189377 C344.23287751 342.76357768 348.78012575 347.27393454 353.33555162 351.77640915 C356.16120207 354.57441124 358.97640152 357.38274362 361.78866482 360.19419479 C363.09893589 361.49987942 364.41353342 362.80123823 365.73263264 364.09800339 C367.52682427 365.86302555 369.30513925 367.64262477 371.08019352 369.42686081 C371.61091109 369.94164993 372.14162866 370.45643906 372.68842858 370.98682785 C376.09889079 374.46050882 376.09889079 374.46050882 376.14802837 377.14634609 C374.86732692 379.4867213 373.40820223 381.12936965 371.52355289 383.02447128 C370.7538567 383.80551727 369.9841605 384.58656326 369.19114017 385.39127731 C368.34075169 386.2387352 367.4903632 387.08619308 366.61420536 387.95933151 C365.72315601 388.8588504 364.83210667 389.75836929 363.91405582 390.68514633 C361.47072642 393.1506981 359.01783181 395.60651685 356.56242251 398.06003213 C354.51446057 400.10787446 352.47085621 402.16003869 350.42712766 404.2121045 C345.60753491 409.05093205 340.77980898 413.88153998 335.94721317 418.70737839 C330.95727758 423.69066511 325.98230411 428.68854485 321.01425856 433.69364673 C316.75055228 437.98800083 312.47728903 442.27267889 308.19628221 446.54978627 C305.63842914 449.10556761 303.0845304 451.66501578 300.53994656 454.23401451 C297.70487817 457.09538307 294.85019068 459.9363468 291.99311161 462.77573776 C291.14879581 463.6333168 290.30448002 464.49089584 289.4345789 465.37446213 C288.65642323 466.141409 287.87826756 466.90835587 287.07653141 467.69854355 C286.40307776 468.3727097 285.72962412 469.04687586 285.03576279 469.74147129 C283.10956669 471.04404831 283.10956669 471.04404831 281.21676064 471.08572388 C278.08349131 469.53681562 275.84963467 467.18547352 273.42749882 464.72274399 C272.58320226 463.88229234 272.58320226 463.88229234 271.7218492 463.02486187 C269.83379084 461.14175288 267.95666843 459.24810647 266.07929325 457.35435104 C264.72961102 456.0038228 263.37926824 454.65395441 262.02831364 453.30469894 C258.35869593 449.63594359 254.69841504 445.95799791 251.03970528 442.27836871 C247.21603156 438.43596827 243.38388657 434.60203592 239.55262089 430.7672081 C232.29708073 423.50233572 225.04922315 416.22984834 217.804075 408.95461375 C209.55612008 400.67315151 201.29966665 392.4001846 193.04247808 384.12793052 C176.05534825 367.10942498 159.07895231 350.08024559 142.10956669 333.04404831 C138.11715397 334.64613589 135.45606383 337.44036988 132.49910831 340.45437241 C131.94385532 341.01214994 131.38860233 341.56992748 130.81652349 342.14460737 C128.95638225 344.0155073 127.10350156 345.89343698 125.25043583 347.77134323 C123.91854865 349.11361637 122.58617472 350.45540666 121.25335026 351.79674911 C118.38385827 354.68612426 115.51730682 357.57837487 112.65282726 360.47271919 C108.12582431 365.04580771 103.58910031 369.60916625 99.05034733 374.17058945 C86.14522194 387.14262241 73.24841126 400.12284051 60.37250614 413.12388229 C53.2613535 420.30398183 46.13961556 427.47340075 39.00580972 434.63099557 C34.4875132 439.1655283 29.98270272 443.71292578 25.48718178 448.27003324 C22.69183344 451.09730686 19.88407025 453.91198486 17.07252789 456.72314644 C15.76799066 458.03254304 14.46863565 459.34712549 13.17481709 460.66711426 C11.4123715 462.4637181 9.63254023 464.24105784 7.84700871 466.01467514 C7.33513242 466.54539271 6.82325614 467.07611028 6.29586846 467.6229102 C4.01866821 469.84941662 2.76059902 471.03400688 -0.49315166 471.08419228 C-3.25965192 469.88384998 -4.85763053 468.56950665 -6.98438168 466.43111801 C-7.76535717 465.65564117 -8.54633266 464.88016434 -9.35097408 464.0811882 C-10.19326565 463.22451553 -11.03555721 462.36784286 -11.90337276 461.48521042 C-13.2504607 460.13899864 -13.2504607 460.13899864 -14.62476254 458.76559067 C-17.08383795 456.30766232 -19.53039032 453.83760169 -21.9748795 451.36517787 C-24.53284055 448.78220206 -27.10214304 446.21055862 -29.67026424 443.6376915 C-34.53014665 438.76537956 -39.37974319 433.88296162 -44.22572726 428.99683052 C-49.74382742 423.43401204 -55.27329774 417.88255512 -60.80375254 412.3320235 C-72.17867926 400.91529297 -83.53924162 389.48437893 -94.89043331 378.04404831 C-93.28184367 374.03448361 -90.46448944 371.34427432 -87.44887447 368.36198044 C-86.60714119 367.51768388 -86.60714119 367.51768388 -85.74840319 366.65633082 C-83.86606041 364.77069268 -81.97665633 362.89229373 -80.08721066 361.01377487 C-78.73674959 359.66387791 -77.38672869 358.31354047 -76.03711605 356.96279526 C-72.37032915 353.29543381 -68.69740214 349.63427771 -65.02335978 345.9741869 C-61.18541303 342.14873046 -57.35311761 338.31762125 -53.52022457 334.48710251 C-46.26047568 327.23357338 -38.99564292 319.98515818 -31.72897971 312.73855662 C-23.45671261 304.48863307 -15.19011407 296.23303954 -6.92399192 287.97695971 C10.08088471 270.99299632 27.09288419 254.01618249 44.10956669 237.04404831 C42.50360374 233.03438137 39.68506549 230.35978036 36.66127872 227.38889694 C35.81848709 226.54883378 35.81848709 226.54883378 34.95866936 225.69179964 C33.0739571 223.81550418 31.18220928 221.94646476 29.29047489 220.07725143 C27.93835662 218.73388204 26.58671406 217.39003371 25.23551273 216.04574203 C22.32491462 213.15163733 19.4113901 210.26052211 16.49569988 207.3715477 C11.8894269 202.80658714 7.29234995 198.23244273 2.69701481 193.65647507 C-10.37146135 180.64562441 -23.44989489 167.64483994 -36.5430212 154.6587944 C-43.77398474 147.48681102 -50.99604089 140.30598186 -58.20834762 133.11523581 C-62.7781621 128.56010115 -67.35886303 124.01629204 -71.94773996 119.48036575 C-74.79414912 116.66160462 -77.63010805 113.83251309 -80.46313 111.00030327 C-81.78307634 109.68494344 -83.10734923 108.37390954 -84.43612385 107.06746864 C-86.24345074 105.28931035 -88.03490667 103.49657121 -89.82309628 101.69919968 C-90.35770479 101.1805196 -90.89231331 100.66183953 -91.44312209 100.12744188 C-94.87909891 96.62824142 -94.87909891 96.62824142 -94.93126774 93.93937778 C-93.64790601 91.60241308 -92.18787755 89.95752906 -90.30441952 88.06362534 C-89.14987522 86.89205635 -89.14987522 86.89205635 -87.9720068 85.69681931 C-87.12161831 84.84936142 -86.27122982 84.00190353 -85.39507198 83.12876511 C-84.05849796 81.77948677 -84.05849796 81.77948677 -82.69492245 80.40295029 C-80.25159304 77.93739852 -77.79869843 75.48157977 -75.34328914 73.02806449 C-73.29532719 70.98022216 -71.25172283 68.92805793 -69.20799428 66.87599212 C-64.38840153 62.03716457 -59.5606756 57.20655664 -54.7280798 52.38071823 C-49.73814421 47.39743151 -44.76317073 42.39955177 -39.79512519 37.39444989 C-35.5314189 33.10009579 -31.25815565 28.81541773 -26.97714883 24.53831035 C-24.41929576 21.98252901 -21.86539702 19.42308084 -19.32081318 16.85408211 C-16.48574479 13.99271355 -13.6310573 11.15174981 -10.77397823 8.31235886 C-9.50750454 7.0259903 -9.50750454 7.0259903 -8.21544552 5.71363449 C-7.43728985 4.94668762 -6.65913418 4.17974075 -5.85739803 3.38955307 C-5.18394439 2.71538692 -4.51049074 2.04122076 -3.81662941 1.34662533 C-1.89043331 0.04404831 -1.89043331 0.04404831 0 0 Z " fill="#FE3ACB" transform="translate(393.8904333114624,241.95595169067383)"/>
<path d="M0 0 C3.98633903 1.60351753 6.6595246 4.38831937 9.62391663 7.39013672 C10.18058075 7.94579756 10.73724487 8.5014584 11.3107776 9.07395744 C13.17559328 10.93782021 15.03316554 12.80873807 16.89086914 14.6796875 C18.22603895 16.01705841 19.56165696 17.35398199 20.89768982 18.69049072 C23.77401232 21.56974753 26.64714833 24.45213407 29.51786995 27.3369751 C34.05484204 31.89619312 38.59887313 36.44833102 43.14390564 40.99951172 C50.32989717 48.19688755 57.51120051 55.39892032 64.69048351 62.60298729 C77.55217356 75.50899923 90.4194453 88.40944046 103.29193395 101.30468178 C107.81136128 105.83252919 112.32796431 110.36317008 116.84233677 114.89605713 C119.64779516 117.71214161 122.45526913 120.5262102 125.26325417 123.33977509 C126.56744726 124.64744524 127.87076747 125.95598661 129.17316055 127.26544952 C130.94750915 129.04921912 132.72489417 130.82990713 134.50306702 132.60986328 C135.02076898 133.13184233 135.53847095 133.65382137 136.07186085 134.19161797 C138.29552605 136.41175301 140.37291862 138.24861241 143 140 C141.35987473 140.82145405 141.35987473 140.82145405 139 141 C136.85943949 139.35846774 135.11227689 137.77365924 133.24200439 135.85673523 C132.67097292 135.29138701 132.09994144 134.72603879 131.51160598 134.1435588 C129.59101342 132.23594027 127.68889118 130.31089393 125.78613281 128.38549805 C124.41716087 127.01838882 123.04710379 125.65236548 121.67604065 124.28735352 C117.94796505 120.5692845 114.23570912 116.83577414 110.5262804 113.09911323 C106.64953144 109.19860291 102.75946758 105.31141589 98.87103271 101.42256165 C92.34257282 94.88946821 85.8237088 88.3469243 79.31103516 81.7980957 C71.77102403 74.2163393 64.21899069 66.64673616 56.6597321 59.0841729 C48.62672129 51.04756798 40.60137133 43.00334968 32.57890224 34.95622277 C30.26020714 32.6312863 27.9402073 30.30765818 25.61997223 27.98425865 C21.98067561 24.33907917 18.3466166 20.68875659 14.71662712 17.03430939 C13.37994162 15.69015705 12.04154015 14.34770877 10.70134926 13.00705147 C8.87957052 11.1840234 7.06403319 9.35500679 5.25006104 7.5242157 C4.7119477 6.98851745 4.17383437 6.4528192 3.61941457 5.90088767 C0 2.22838619 0 2.22838619 0 0 Z " fill="#FEAE1E" transform="translate(534,574)"/>
<path d="M0 0 C1.8145647 0.83409405 1.8145647 0.83409405 2.8145647 2.83409405 C1.70137222 2.97216803 1.70137222 2.97216803 0.56569099 3.11303139 C-2.65475825 3.95710231 -3.8720323 5.02663005 -6.20345592 7.37109661 C-6.96760311 8.12974514 -7.7317503 8.88839367 -8.51905346 9.67003155 C-9.34264355 10.50800274 -10.16623363 11.34597393 -11.014781 12.20933819 C-11.89333248 13.08730556 -12.77188396 13.96527294 -13.67705822 14.86984539 C-16.08074348 17.27583873 -18.4752135 19.69035928 -20.8660233 22.1091063 C-23.36792853 24.6360286 -25.88117753 27.15161643 -28.39324474 29.66842937 C-33.14688055 34.43449404 -37.89022861 39.21066256 -42.62996405 43.99054664 C-48.02714618 49.43244921 -53.43570043 54.86298847 -58.84523928 60.29260361 C-69.97133912 71.46050573 -81.08307321 82.64259016 -92.1854353 93.83409405 C-90.34170975 97.82098686 -87.73129277 100.55690177 -84.63416576 103.61241436 C-83.78516705 104.46185116 -83.78516705 104.46185116 -82.91901684 105.3284483 C-81.0515881 107.19448643 -79.17718067 109.05334501 -77.3026228 110.91221905 C-76.00467118 112.20643958 -74.70716114 113.5011031 -73.41007519 114.79619122 C-69.99828694 118.20035051 -66.58053477 121.59846038 -63.16150951 124.99534893 C-59.6723761 128.46400811 -56.18891143 131.93834988 -52.70496655 135.41221905 C-45.87066162 142.22508706 -39.03004327 149.03157825 -32.1854353 155.83409405 C-32.5154353 156.49409405 -32.8454353 157.15409405 -33.1854353 157.83409405 C-41.30112594 149.83408178 -49.40339224 141.8207434 -57.48863602 133.78995419 C-61.24308018 130.06164106 -65.00204884 126.33813577 -68.77161694 122.62510967 C-72.40699971 119.04391953 -76.03015173 115.4507717 -79.64502811 111.84888744 C-81.02863399 110.47454423 -82.41664427 109.10462094 -83.80901814 107.73916149 C-85.75359309 105.83070519 -87.6821309 103.90735069 -89.60755444 101.97960186 C-90.48256603 101.13155483 -90.48256603 101.13155483 -91.37525463 100.26637554 C-92.95193005 98.66887188 -92.95193005 98.66887188 -95.1854353 95.83409405 C-94.92711885 92.17885131 -93.11144856 90.37962988 -90.5994215 87.85367107 C-89.4448772 86.68210209 -89.4448772 86.68210209 -88.26700878 85.48686504 C-87.41662029 84.63940716 -86.5662318 83.79194927 -85.69007397 82.91881084 C-84.35349995 81.56953251 -84.35349995 81.56953251 -82.98992443 80.19299603 C-80.54659502 77.72744426 -78.09370041 75.2716255 -75.63829112 72.81811023 C-73.59032918 70.7702679 -71.54672481 68.71810367 -69.50299627 66.66603786 C-64.68340352 61.8272103 -59.85567758 56.99660237 -55.02308178 52.17076397 C-50.03314619 47.18747725 -45.05817271 42.18959751 -40.09012717 37.18449563 C-35.82642089 32.89014153 -31.55315763 28.60546347 -27.27215081 24.32835609 C-24.71429774 21.77257475 -22.160399 19.21312658 -19.61581516 16.64412785 C-16.78074677 13.78275929 -13.92605928 10.94179555 -11.06898022 8.10240459 C-9.80250652 6.81603603 -9.80250652 6.81603603 -8.5104475 5.50368023 C-7.73229183 4.73673336 -6.95413616 3.96978649 -6.15240002 3.17959881 C-5.47894637 2.50543265 -4.80549273 1.8312665 -4.11163139 1.13667107 C-2.1854353 -0.16590595 -2.1854353 -0.16590595 0 0 Z " fill="#FE43BD" transform="translate(394.185435295105,242.1659059524536)"/>
<path d="M0 0 C4.56712016 4.56480536 9.12840738 9.13542397 13.68994141 13.70581055 C22.48034504 22.51255713 31.27327829 31.31677321 40.06769753 40.1195097 C45.38763352 45.44461346 50.70661784 50.77066156 56.0234375 56.09887695 C60.67280441 60.75820356 65.32392018 65.41577598 69.97715318 70.07124168 C72.43712708 72.53251892 74.89621345 74.99466838 77.35319901 77.45892906 C80.08903027 80.20279828 82.8287618 82.9427522 85.56884766 85.68237305 C86.38242233 86.499543 87.19599701 87.31671295 88.03422546 88.15864563 C88.77998337 88.90302887 89.52574127 89.64741211 90.2940979 90.41435242 C90.94115503 91.06233134 91.58821217 91.71031027 92.25487709 92.37792492 C94.10975101 94.18884984 94.10975101 94.18884984 97 96 C95.25072861 96.71146679 95.25072861 96.71146679 93 97 C91.05539322 95.68180561 91.05539322 95.68180561 88.98834229 93.61653137 C88.2003273 92.84117035 87.41231232 92.06580933 86.60041809 91.26695251 C85.74518051 90.40002274 84.88994293 89.53309296 84.00878906 88.63989258 C83.10112289 87.73938171 82.19345673 86.83887085 81.25828552 85.91107178 C78.76547542 83.43682158 76.2887196 80.9470519 73.81501865 78.45371461 C71.22694753 75.84929099 68.62633042 73.25744813 66.02752686 70.66374207 C61.66428166 66.30502204 57.31135578 61.93619686 52.96435547 57.5612793 C47.93587134 52.50075143 42.89155745 47.45643987 37.83840966 42.42054826 C32.98205523 37.58004955 28.13705899 32.7283346 23.29717255 27.87137413 C21.23544624 25.80276856 19.16981193 23.73818448 17.10095978 21.67670631 C14.21348831 18.79830772 11.34281557 15.90370907 8.47363281 13.00708008 C7.61029831 12.15027145 6.74696381 11.29346283 5.85746765 10.41069031 C4.69236412 9.22650009 4.69236412 9.22650009 3.50372314 8.01838684 C2.82310444 7.33496121 2.14248573 6.65153559 1.44124222 5.94740009 C0 4 0 4 0 0 Z " fill="#FEAF1C" transform="translate(298,618)"/>
<path d="M0 0 C0.99 0.495 0.99 0.495 2 1 C-1.92513081 5.852889 -6.20389794 10.18419952 -10.83203125 14.36328125 C-18.45355916 21.32460324 -25.72731207 28.61538241 -33 35.9375 C-34.29533323 37.23786901 -35.59090526 38.53800019 -36.88671875 39.83789062 C-39.25146953 42.21070167 -41.61486973 44.58483874 -43.9765625 46.96069336 C-50.71287334 53.73558734 -50.71287334 53.73558734 -53.9921875 56.95703125 C-58.07534604 60.98089081 -61.90062851 65.11238797 -65.5546875 69.53125 C-66.03164063 70.0159375 -66.50859375 70.500625 -67 71 C-67.66 71 -68.32 71 -69 71 C-69.20625 71.53625 -69.4125 72.0725 -69.625 72.625 C-71.53250426 75.91978009 -74.04819384 78.59363628 -77 81 C-77.66 81 -78.32 81 -79 81 C-79.24492188 81.57234375 -79.48984375 82.1446875 -79.7421875 82.734375 C-81.21110099 85.38024402 -82.95348244 87.14853139 -85.125 89.25 C-85.84945312 89.95640625 -86.57390625 90.6628125 -87.3203125 91.390625 C-88.15175781 92.18726563 -88.15175781 92.18726563 -89 93 C-89.99 92.67 -90.98 92.34 -92 92 C-61.64 61.64 -31.28 31.28 0 0 Z " fill="#FEAD1D" transform="translate(769,620)"/>
<path d="M0 0 C14.85 0 29.7 0 45 0 C45 0.33 45 0.66 45 1 C30.15 1 15.3 1 0 1 C0 0.67 0 0.34 0 0 Z " fill="#FFAD00" transform="translate(510,127)"/>
<path d="M0 0 C0.33 0 0.66 0 1 0 C1 12.54 1 25.08 1 38 C0.67 38 0.34 38 0 38 C0 25.46 0 12.92 0 0 Z " fill="#FF9900" transform="translate(179,462)"/>
<path d="M0 0 C0.33 0 0.66 0 1 0 C1 8.25 1 16.5 1 25 C0.67 25 0.34 25 0 25 C0 16.75 0 8.5 0 0 Z " fill="#FFB200" transform="translate(886,468)"/>
<path d="M0 0 C7.59 0 15.18 0 23 0 C23 0.33 23 0.66 23 1 C15.41 1 7.82 1 0 1 C0 0.67 0 0.34 0 0 Z " fill="#FFC800" transform="translate(506,833)"/>
<path d="M0 0 C7.26 0 14.52 0 22 0 C22 0.33 22 0.66 22 1 C14.74 1 7.48 1 0 1 C0 0.67 0 0.34 0 0 Z " fill="#FFCF00" transform="translate(537,833)"/>
<path d="M0 0 C0.33 0 0.66 0 1 0 C1 5.61 1 11.22 1 17 C0.67 17 0.34 17 0 17 C0 11.39 0 5.78 0 0 Z " fill="#FFB400" transform="translate(885,493)"/>
<path d="M0 0 C0.33 0 0.66 0 1 0 C1 5.61 1 11.22 1 17 C0.67 17 0.34 17 0 17 C0 11.39 0 5.78 0 0 Z " fill="#FFB900" transform="translate(885,451)"/>
<path d="M0 0 C0.33 0 0.66 0 1 0 C1 4.62 1 9.24 1 14 C0.67 14 0.34 14 0 14 C0 9.38 0 4.76 0 0 Z " fill="#FF9D00" transform="translate(180,448)"/>
<path d="M0 0 C0.33 0 0.66 0 1 0 C1 4.29 1 8.58 1 13 C0.67 13 0.34 13 0 13 C0 8.71 0 4.42 0 0 Z " fill="#FF9900" transform="translate(180,500)"/>
<path d="M0 0 C3.96 0 7.92 0 12 0 C12 0.33 12 0.66 12 1 C8.04 1 4.08 1 0 1 C0 0.67 0 0.34 0 0 Z " fill="#FFAD00" transform="translate(556,128)"/>
<path d="M0 0 C3.96 0 7.92 0 12 0 C12 0.33 12 0.66 12 1 C8.04 1 4.08 1 0 1 C0 0.67 0 0.34 0 0 Z " fill="#FF9800" transform="translate(498,128)"/>
<path d="M0 0 C3.63 0 7.26 0 11 0 C11 0.33 11 0.66 11 1 C7.37 1 3.74 1 0 1 C0 0.67 0 0.34 0 0 Z " fill="#FFB700" transform="translate(495,832)"/>
<path d="M0 0 C3.3 0 6.6 0 10 0 C10 0.33 10 0.66 10 1 C6.7 1 3.4 1 0 1 C0 0.67 0 0.34 0 0 Z " fill="#F2C300" transform="translate(560,832)"/>
<path d="M0 0 C0.33 0 0.66 0 1 0 C1 3.3 1 6.6 1 10 C0.67 10 0.34 10 0 10 C0 6.7 0 3.4 0 0 Z " fill="#FFA500" transform="translate(181,513)"/>
<path d="M0 0 C0.33 0 0.66 0 1 0 C1 3.3 1 6.6 1 10 C0.67 10 0.34 10 0 10 C0 6.7 0 3.4 0 0 Z " fill="#FF9900" transform="translate(884,510)"/>
<path d="M0 0 C0.33 0 0.66 0 1 0 C1 3.3 1 6.6 1 10 C0.67 10 0.34 10 0 10 C0 6.7 0 3.4 0 0 Z " fill="#FFAE00" transform="translate(884,441)"/>
<path d="M0 0 C0.33 0 0.66 0 1 0 C1 2.97 1 5.94 1 9 C0.67 9 0.34 9 0 9 C0 6.03 0 3.06 0 0 Z " fill="#FFC800" transform="translate(181,439)"/>
<path d="M0 0 C2.97 0 5.94 0 9 0 C9 0.33 9 0.66 9 1 C6.03 1 3.06 1 0 1 C0 0.67 0 0.34 0 0 Z " fill="#FF9400" transform="translate(489,129)"/>
<path d="M0 0 C2.64 0 5.28 0 8 0 C8 0.33 8 0.66 8 1 C5.36 1 2.72 1 0 1 C0 0.67 0 0.34 0 0 Z " fill="#FFB200" transform="translate(571,831)"/>
<path d="M0 0 C2.64 0 5.28 0 8 0 C8 0.33 8 0.66 8 1 C5.36 1 2.72 1 0 1 C0 0.67 0 0.34 0 0 Z " fill="#FFA400" transform="translate(487,831)"/>
<path d="M0 0 C0.66 0.33 1.32 0.66 2 1 C1.01 1.99 0.02 2.98 -1 4 C-1.66 3.67 -2.32 3.34 -3 3 C-2.01 2.01 -1.02 1.02 0 0 Z " fill="#FFBA00" transform="translate(776,735)"/>
<path d="M0 0 C0 0.99 0 1.98 0 3 C-0.99 3.66 -1.98 4.32 -3 5 C-1.125 1.125 -1.125 1.125 0 0 Z " fill="#FFAA00" transform="translate(790,721)"/>
<path d="M0 0 C0.33 0 0.66 0 1 0 C1 2.64 1 5.28 1 8 C0.67 8 0.34 8 0 8 C0 5.36 0 2.72 0 0 Z " fill="#F4A700" transform="translate(883,520)"/>
<path d="M0 0 C0.33 0 0.66 0 1 0 C1 2.64 1 5.28 1 8 C0.67 8 0.34 8 0 8 C0 5.36 0 2.72 0 0 Z " fill="#FFA400" transform="translate(883,433)"/>
<path d="M0 0 C0.33 0 0.66 0 1 0 C1 2.64 1 5.28 1 8 C0.67 8 0.34 8 0 8 C0 5.36 0 2.72 0 0 Z " fill="#FFB200" transform="translate(182,431)"/>
<path d="M0 0 C0 0.99 0 1.98 0 3 C-0.99 3.66 -1.98 4.32 -3 5 C-1.125 1.125 -1.125 1.125 0 0 Z " fill="#FFB400" transform="translate(278,235)"/>
<path d="M0 0 C0.66 0.33 1.32 0.66 2 1 C1.01 1.99 0.02 2.98 -1 4 C-1.66 3.67 -2.32 3.34 -3 3 C-2.01 2.01 -1.02 1.02 0 0 Z " fill="#FF9A00" transform="translate(291,222)"/>
<path d="M0 0 C2.64 0 5.28 0 8 0 C8 0.33 8 0.66 8 1 C5.36 1 2.72 1 0 1 C0 0.67 0 0.34 0 0 Z " fill="#FFBA00" transform="translate(568,129)"/>
<path d="M0 0 C2.31 0 4.62 0 7 0 C7 0.33 7 0.66 7 1 C4.69 1 2.38 1 0 1 C0 0.67 0 0.34 0 0 Z " fill="#FF9400" transform="translate(579,830)"/>
<path d="M0 0 C2.31 0 4.62 0 7 0 C7 0.33 7 0.66 7 1 C4.69 1 2.38 1 0 1 C0 0.67 0 0.34 0 0 Z " fill="#FFCB00" transform="translate(480,830)"/>
<path d="M0 0 C0.33 0 0.66 0 1 0 C1 2.31 1 4.62 1 7 C0.67 7 0.34 7 0 7 C0 4.69 0 2.38 0 0 Z " fill="#FFA700" transform="translate(183,530)"/>
<path d="M0 0 C0.33 0 0.66 0 1 0 C1 2.31 1 4.62 1 7 C0.67 7 0.34 7 0 7 C0 4.69 0 2.38 0 0 Z " fill="#FFB900" transform="translate(882,528)"/>
<path d="M0 0 C0.33 0 0.66 0 1 0 C1 2.31 1 4.62 1 7 C0.67 7 0.34 7 0 7 C0 4.69 0 2.38 0 0 Z " fill="#FFB900" transform="translate(182,523)"/>
<path d="M0 0 C0.33 0 0.66 0 1 0 C1 2.31 1 4.62 1 7 C0.67 7 0.34 7 0 7 C0 4.69 0 2.38 0 0 Z " fill="#FF9400" transform="translate(882,426)"/>
<path d="M0 0 C2.31 0 4.62 0 7 0 C7 0.33 7 0.66 7 1 C4.69 1 2.38 1 0 1 C0 0.67 0 0.34 0 0 Z " fill="#FFA700" transform="translate(475,131)"/>
<path d="M0 0 C2.31 0 4.62 0 7 0 C7 0.33 7 0.66 7 1 C4.69 1 2.38 1 0 1 C0 0.67 0 0.34 0 0 Z " fill="#FFA700" transform="translate(577,130)"/>
<path d="M0 0 C2.31 0 4.62 0 7 0 C7 0.33 7 0.66 7 1 C4.69 1 2.38 1 0 1 C0 0.67 0 0.34 0 0 Z " fill="#FFB900" transform="translate(482,130)"/>
<path d="M0 0 C1.98 0 3.96 0 6 0 C6 0.33 6 0.66 6 1 C4.02 1 2.04 1 0 1 C0 0.67 0 0.34 0 0 Z " fill="#FF0000" transform="translate(530,834)"/>
<path d="M0 0 C1.98 0 3.96 0 6 0 C6 0.33 6 0.66 6 1 C4.02 1 2.04 1 0 1 C0 0.67 0 0.34 0 0 Z " fill="#E99100" transform="translate(586,829)"/>
<path d="M0 0 C1.98 0 3.96 0 6 0 C6 0.33 6 0.66 6 1 C4.02 1 2.04 1 0 1 C0 0.67 0 0.34 0 0 Z " fill="#FFC200" transform="translate(474,829)"/>
<path d="M0 0 C1.98 0 3.96 0 6 0 C6 0.33 6 0.66 6 1 C4.02 1 2.04 1 0 1 C0 0.67 0 0.34 0 0 Z " fill="#FFBF00" transform="translate(592,828)"/>
<path d="M0 0 C1.98 0 3.96 0 6 0 C6 0.33 6 0.66 6 1 C4.02 1 2.04 1 0 1 C0 0.67 0 0.34 0 0 Z " fill="#FF9800" transform="translate(468,828)"/>
<path d="M0 0 C1.485 0.99 1.485 0.99 3 2 C2.67 2.66 2.34 3.32 2 4 C1.34 2.68 0.68 1.36 0 0 Z " fill="#FF9C00" transform="translate(271,717)"/>
<path d="M0 0 C0.33 0 0.66 0 1 0 C1 1.98 1 3.96 1 6 C0.67 6 0.34 6 0 6 C0 4.02 0 2.04 0 0 Z " fill="#FFAA00" transform="translate(184,537)"/>
<path d="M0 0 C0.33 0 0.66 0 1 0 C1 1.98 1 3.96 1 6 C0.67 6 0.34 6 0 6 C0 4.02 0 2.04 0 0 Z " fill="#FFBB00" transform="translate(881,535)"/>
<path d="M0 0 C0.33 0 0.66 0 1 0 C1 1.98 1 3.96 1 6 C0.67 6 0.34 6 0 6 C0 4.02 0 2.04 0 0 Z " fill="#FFAD00" transform="translate(183,425)"/>
<path d="M0 0 C0.33 0 0.66 0 1 0 C1 1.98 1 3.96 1 6 C0.67 6 0.34 6 0 6 C0 4.02 0 2.04 0 0 Z " fill="#FFC900" transform="translate(881,420)"/>
<path d="M0 0 C0.33 0 0.66 0 1 0 C1 1.98 1 3.96 1 6 C0.67 6 0.34 6 0 6 C0 4.02 0 2.04 0 0 Z " fill="#FF7C00" transform="translate(185,413)"/>
<path d="M0 0 C1.98 0 3.96 0 6 0 C6 0.33 6 0.66 6 1 C4.02 1 2.04 1 0 1 C0 0.67 0 0.34 0 0 Z " fill="#FF9100" transform="translate(464,133)"/>
<path d="M0 0 C1.98 0 3.96 0 6 0 C6 0.33 6 0.66 6 1 C4.02 1 2.04 1 0 1 C0 0.67 0 0.34 0 0 Z " fill="#FFC200" transform="translate(590,132)"/>
<path d="M0 0 C1.98 0 3.96 0 6 0 C6 0.33 6 0.66 6 1 C4.02 1 2.04 1 0 1 C0 0.67 0 0.34 0 0 Z " fill="#FFAD00" transform="translate(584,131)"/>
<path d="M0 0 C1.65 0 3.3 0 5 0 C5 0.33 5 0.66 5 1 C3.35 1 1.7 1 0 1 C0 0.67 0 0.34 0 0 Z " fill="#FFAE00" transform="translate(598,827)"/>
<path d="M0 0 C1.65 0 3.3 0 5 0 C5 0.33 5 0.66 5 1 C3.35 1 1.7 1 0 1 C0 0.67 0 0.34 0 0 Z " fill="#FFAE00" transform="translate(463,827)"/>
<path d="M0 0 C1.65 0 3.3 0 5 0 C5 0.33 5 0.66 5 1 C3.35 1 1.7 1 0 1 C0 0.67 0 0.34 0 0 Z " fill="#FF9400" transform="translate(458,826)"/>
<path d="M0 0 C0.33 0 0.66 0 1 0 C1 1.65 1 3.3 1 5 C0.67 5 0.34 5 0 5 C0 3.35 0 1.7 0 0 Z " fill="#FFAA00" transform="translate(877,556)"/>
<path d="M0 0 C0.33 0 0.66 0 1 0 C1 1.65 1 3.3 1 5 C0.67 5 0.34 5 0 5 C0 3.35 0 1.7 0 0 Z " fill="#FF9400" transform="translate(187,553)"/>
<path d="M0 0 C0.33 0 0.66 0 1 0 C1 1.65 1 3.3 1 5 C0.67 5 0.34 5 0 5 C0 3.35 0 1.7 0 0 Z " fill="#FFAE00" transform="translate(879,547)"/>
<path d="M0 0 C0.33 0 0.66 0 1 0 C1 1.65 1 3.3 1 5 C0.67 5 0.34 5 0 5 C0 3.35 0 1.7 0 0 Z " fill="#FFC300" transform="translate(186,548)"/>
<path d="M0 0 C0.33 0 0.66 0 1 0 C1 1.65 1 3.3 1 5 C0.67 5 0.34 5 0 5 C0 3.35 0 1.7 0 0 Z " fill="#FFC700" transform="translate(185,543)"/>
<path d="M0 0 C0.33 0 0.66 0 1 0 C1 1.65 1 3.3 1 5 C0.67 5 0.34 5 0 5 C0 3.35 0 1.7 0 0 Z " fill="#FFCC00" transform="translate(880,541)"/>
<path d="M0 0 C0.33 0 0.66 0 1 0 C1 1.65 1 3.3 1 5 C0.67 5 0.34 5 0 5 C0 3.35 0 1.7 0 0 Z " fill="#FFB600" transform="translate(184,419)"/>
<path d="M0 0 C0.33 0 0.66 0 1 0 C1 1.65 1 3.3 1 5 C0.67 5 0.34 5 0 5 C0 3.35 0 1.7 0 0 Z " fill="#FFAE00" transform="translate(880,415)"/>
<path d="M0 0 C0.33 0 0.66 0 1 0 C1 1.65 1 3.3 1 5 C0.67 5 0.34 5 0 5 C0 3.35 0 1.7 0 0 Z " fill="#F2C700" transform="translate(879,410)"/>
<path d="M0 0 C0.33 0 0.66 0 1 0 C1 1.65 1 3.3 1 5 C0.67 5 0.34 5 0 5 C0 3.35 0 1.7 0 0 Z " fill="#FFAE00" transform="translate(186,408)"/>
<path d="M0 0 C0.33 0 0.66 0 1 0 C1 1.65 1 3.3 1 5 C0.67 5 0.34 5 0 5 C0 3.35 0 1.7 0 0 Z " fill="#FFC700" transform="translate(878,405)"/>
<path d="M0 0 C0.33 0 0.66 0 1 0 C1 1.65 1 3.3 1 5 C0.67 5 0.34 5 0 5 C0 3.35 0 1.7 0 0 Z " fill="#FFAE00" transform="translate(188,399)"/>
<path d="M0 0 C0.33 0 0.66 0 1 0 C1 1.65 1 3.3 1 5 C0.67 5 0.34 5 0 5 C0 3.35 0 1.7 0 0 Z " fill="#FFAA00" transform="translate(876,396)"/>
<path d="M0 0 C1.65 0 3.3 0 5 0 C5 0.33 5 0.66 5 1 C3.35 1 1.7 1 0 1 C0 0.67 0 0.34 0 0 Z " fill="#FFAE00" transform="translate(606,135)"/>
<path d="M0 0 C1.65 0 3.3 0 5 0 C5 0.33 5 0.66 5 1 C3.35 1 1.7 1 0 1 C0 0.67 0 0.34 0 0 Z " fill="#FFCC00" transform="translate(601,134)"/>
<path d="M0 0 C1.65 0 3.3 0 5 0 C5 0.33 5 0.66 5 1 C3.35 1 1.7 1 0 1 C0 0.67 0 0.34 0 0 Z " fill="#F2B200" transform="translate(596,133)"/>
<path d="M0 0 C1.65 0 3.3 0 5 0 C5 0.33 5 0.66 5 1 C3.35 1 1.7 1 0 1 C0 0.67 0 0.34 0 0 Z " fill="#EEB600" transform="translate(470,132)"/>
<path d="M0 0 C4 1 4 1 4 1 Z " fill="#FFD900" transform="translate(603,826)"/>
<path d="M0 0 C4 1 4 1 4 1 Z " fill="#FFBA00" transform="translate(608,825)"/>
<path d="M0 0 C4 1 4 1 4 1 Z " fill="#FFEF00" transform="translate(454,825)"/>
<path d="M0 0 C4 1 4 1 4 1 Z " fill="#FFCF00" transform="translate(612,824)"/>
<path d="M0 0 C4 1 4 1 4 1 Z " fill="#FFD400" transform="translate(450,824)"/>
<path d="M0 0 C4 1 4 1 4 1 Z " fill="#FFD900" transform="translate(616,823)"/>
<path d="M0 0 C4 1 4 1 4 1 Z " fill="#FF8F00" transform="translate(620,822)"/>
<path d="M0 0 C4 1 4 1 4 1 Z " fill="#FF8F00" transform="translate(624,821)"/>
<path d="M0 0 C4 1 4 1 4 1 Z " fill="#FFAF00" transform="translate(438,821)"/>
<path d="M0 0 C0.66 0.33 1.32 0.66 2 1 C1.01 1 0.02 1 -1 1 C-0.67 0.67 -0.34 0.34 0 0 Z " fill="#EF6F00" transform="translate(736,768)"/>
<path d="M0 0 C0.66 0.33 1.32 0.66 2 1 C1.01 1 0.02 1 -1 1 C-0.67 0.67 -0.34 0.34 0 0 Z " fill="#FF8F00" transform="translate(752,756)"/>
<path d="M0 0 C0.99 0.33 1.98 0.66 3 1 C2.01 1 1.02 1 0 1 C0 0.67 0 0.34 0 0 Z " fill="#FFCA00" transform="translate(313,757)"/>
<path d="M0 0 C0.99 0.33 1.98 0.66 3 1 C2.01 1 1.02 1 0 1 C0 0.67 0 0.34 0 0 Z " fill="#FFCF00" transform="translate(308,753)"/>
<path d="M0 0 C0.99 0.33 1.98 0.66 3 1 C2.01 1 1.02 1 0 1 C0 0.67 0 0.34 0 0 Z " fill="#FF8A00" transform="translate(302,748)"/>
<path d="M0 0 C0.66 0.33 1.32 0.66 2 1 C1.01 1 0.02 1 -1 1 C-0.67 0.67 -0.34 0.34 0 0 Z " fill="#FF8F00" transform="translate(764,746)"/>
<path d="M0 0 C0.99 0.33 1.98 0.66 3 1 C2.01 1 1.02 1 0 1 C0 0.67 0 0.34 0 0 Z " fill="#FFE900" transform="translate(293,740)"/>
<path d="M0 0 C0 3 0 3 0 3 Z " fill="#FFCA00" transform="translate(799,711)"/>
<path d="M0 0 C0 3 0 3 0 3 Z " fill="#FF8F00" transform="translate(805,704)"/>
<path d="M0 0 C0.99 0.495 0.99 0.495 2 1 C1.67 1.66 1.34 2.32 1 3 C0.67 2.01 0.34 1.02 0 0 Z " fill="#FFCF00" transform="translate(251,693)"/>
<path d="M0 0 C0 3 0 3 0 3 Z " fill="#FF8F00" transform="translate(816,690)"/>
<path d="M0 0 C1 4 1 4 1 4 Z " fill="#FF6F00" transform="translate(193,577)"/>
<path d="M0 0 C1 4 1 4 1 4 Z " fill="#FF6F00" transform="translate(872,576)"/>
<path d="M0 0 C1 4 1 4 1 4 Z " fill="#FF8F00" transform="translate(191,570)"/>
<path d="M0 0 C1 4 1 4 1 4 Z " fill="#FF7A00" transform="translate(874,569)"/>
<path d="M0 0 C1 4 1 4 1 4 Z " fill="#FFCF00" transform="translate(190,566)"/>
<path d="M0 0 C1 4 1 4 1 4 Z " fill="#FF7A00" transform="translate(875,565)"/>
<path d="M0 0 C1 4 1 4 1 4 Z " fill="#FFEF00" transform="translate(189,562)"/>
<path d="M0 0 C1 4 1 4 1 4 Z " fill="#FF7500" transform="translate(876,561)"/>
<path d="M0 0 C1 4 1 4 1 4 Z " fill="#FF7A00" transform="translate(188,558)"/>
<path d="M0 0 C1 4 1 4 1 4 Z " fill="#FFD900" transform="translate(878,552)"/>
<path d="M0 0 C1 4 1 4 1 4 Z " fill="#FFD900" transform="translate(187,404)"/>
<path d="M0 0 C1 4 1 4 1 4 Z " fill="#FFBA00" transform="translate(877,401)"/>
<path d="M0 0 C1 4 1 4 1 4 Z " fill="#FFAA00" transform="translate(189,395)"/>
<path d="M0 0 C1 4 1 4 1 4 Z " fill="#FF9A00" transform="translate(190,391)"/>
<path d="M0 0 C1 4 1 4 1 4 Z " fill="#FFEF00" transform="translate(873,385)"/>
<path d="M0 0 C1 4 1 4 1 4 Z " fill="#FFEF00" transform="translate(192,384)"/>
<path d="M0 0 C1 4 1 4 1 4 Z " fill="#FF8F00" transform="translate(871,378)"/>
<path d="M0 0 C1 4 1 4 1 4 Z " fill="#FF8F00" transform="translate(194,377)"/>
<path d="M0 0 C0 3 0 3 0 3 Z " fill="#FF5A00" transform="translate(231,296)"/>
<path d="M0 0 C0 3 0 3 0 3 Z " fill="#BF6F00" transform="translate(236,288)"/>
<path d="M0 0 C0 3 0 3 0 3 Z " fill="#FF6F00" transform="translate(247,272)"/>
<path d="M0 0 C0.99 0.495 0.99 0.495 2 1 C1.67 1.66 1.34 2.32 1 3 C0.67 2.01 0.34 1.02 0 0 Z " fill="#FF8F00" transform="translate(817,271)"/>
<path d="M0 0 C0.99 0.495 0.99 0.495 2 1 C1.67 1.66 1.34 2.32 1 3 C0.67 2.01 0.34 1.02 0 0 Z " fill="#FFAF00" transform="translate(814,267)"/>
<path d="M0 0 C0 3 0 3 0 3 Z " fill="#FFEF00" transform="translate(253,264)"/>
<path d="M0 0 C0.99 0.495 0.99 0.495 2 1 C1.67 1.66 1.34 2.32 1 3 C0.67 2.01 0.34 1.02 0 0 Z " fill="#FF8F00" transform="translate(807,258)"/>
<path d="M0 0 C0 3 0 3 0 3 Z " fill="#FF8A00" transform="translate(261,254)"/>
<path d="M0 0 C0.99 0.495 0.99 0.495 2 1 C1.67 1.66 1.34 2.32 1 3 C0.67 2.01 0.34 1.02 0 0 Z " fill="#FFE900" transform="translate(796,245)"/>
<path d="M0 0 C0.99 0.33 1.98 0.66 3 1 C2.01 1 1.02 1 0 1 C0 0.67 0 0.34 0 0 Z " fill="#FFAF00" transform="translate(765,215)"/>
<path d="M0 0 C0.66 0.33 1.32 0.66 2 1 C1.01 1 0.02 1 -1 1 C-0.67 0.67 -0.34 0.34 0 0 Z " fill="#FF8F00" transform="translate(301,213)"/>
<path d="M0 0 C0.99 0.33 1.98 0.66 3 1 C2.01 1 1.02 1 0 1 C0 0.67 0 0.34 0 0 Z " fill="#FF8F00" transform="translate(758,209)"/>
<path d="M0 0 C0.99 0.33 1.98 0.66 3 1 C2.01 1 1.02 1 0 1 C0 0.67 0 0.34 0 0 Z " fill="#FFAF00" transform="translate(736,192)"/>
<path d="M0 0 C4 1 4 1 4 1 Z " fill="#FFAF00" transform="translate(432,141)"/>
<path d="M0 0 C4 1 4 1 4 1 Z " fill="#FF8F00" transform="translate(623,139)"/>
<path d="M0 0 C4 1 4 1 4 1 Z " fill="#FFEF00" transform="translate(439,139)"/>
<path d="M0 0 C4 1 4 1 4 1 Z " fill="#FFEF00" transform="translate(619,138)"/>
<path d="M0 0 C4 1 4 1 4 1 Z " fill="#FFE900" transform="translate(443,138)"/>
<path d="M0 0 C4 1 4 1 4 1 Z " fill="#FFCF00" transform="translate(615,137)"/>
<path d="M0 0 C4 1 4 1 4 1 Z " fill="#FFD900" transform="translate(447,137)"/>
<path d="M0 0 C4 1 4 1 4 1 Z " fill="#FF7A00" transform="translate(611,136)"/>
<path d="M0 0 C4 1 4 1 4 1 Z " fill="#FFBA00" transform="translate(451,136)"/>
<path d="M0 0 C4 1 4 1 4 1 Z " fill="#FFBA00" transform="translate(455,135)"/>
<path d="M0 0 C4 1 4 1 4 1 Z " fill="#FFD900" transform="translate(460,134)"/>
<path d="M0 0 C3 1 3 1 3 1 Z " fill="#FFC600" transform="translate(446,823)"/>
<path d="M0 0 C3 1 3 1 3 1 Z " fill="#FFCD00" transform="translate(442,822)"/>
<path d="M0 0 C3 1 3 1 3 1 Z " fill="#FFC600" transform="translate(628,820)"/>
<path d="M0 0 C3 1 3 1 3 1 Z " fill="#FFCD00" transform="translate(435,820)"/>
<path d="M0 0 C3 1 3 1 3 1 Z " fill="#FFBF00" transform="translate(631,819)"/>
<path d="M0 0 C3 1 3 1 3 1 Z " fill="#FFCD00" transform="translate(431,819)"/>
<path d="M0 0 C3 1 3 1 3 1 Z " fill="#FF8D00" transform="translate(635,818)"/>
<path d="M0 0 C3 1 3 1 3 1 Z " fill="#FFC600" transform="translate(428,818)"/>
<path d="M0 0 C3 1 3 1 3 1 Z " fill="#FFC600" transform="translate(638,817)"/>
<path d="M0 0 C3 1 3 1 3 1 Z " fill="#FFB800" transform="translate(425,817)"/>
<path d="M0 0 C3 1 3 1 3 1 Z " fill="#FFC600" transform="translate(641,816)"/>
<path d="M0 0 C3 1 3 1 3 1 Z " fill="#FFB800" transform="translate(422,816)"/>
<path d="M0 0 C3 1 3 1 3 1 Z " fill="#FFC600" transform="translate(644,815)"/>
<path d="M0 0 C3 1 3 1 3 1 Z " fill="#FF9500" transform="translate(419,815)"/>
<path d="M0 0 C3 1 3 1 3 1 Z " fill="#FF7100" transform="translate(647,814)"/>
<path d="M0 0 C3 1 3 1 3 1 Z " fill="#FFD400" transform="translate(416,814)"/>
<path d="M0 0 C3 1 3 1 3 1 Z " fill="#FFC600" transform="translate(413,813)"/>
<path d="M0 0 C3 1 3 1 3 1 Z " fill="#FF7100" transform="translate(410,812)"/>
<path d="M0 0 C3 1 3 1 3 1 Z " fill="#FFD400" transform="translate(655,811)"/>
<path d="M0 0 C3 1 3 1 3 1 Z " fill="#FFE200" transform="translate(405,810)"/>
<path d="M0 0 C3 1 3 1 3 1 Z " fill="#FFE900" transform="translate(400,808)"/>
<path d="M0 0 C3 1 3 1 3 1 Z " fill="#D46300" transform="translate(395,806)"/>
<path d="M0 0 C3 1 3 1 3 1 Z " fill="#FF6300" transform="translate(670,805)"/>
<path d="M0 0 C3 1 3 1 3 1 Z " fill="#FF6300" transform="translate(679,801)"/>
<path d="" fill="#FF8D00" transform="translate(0,0)"/>
<path d="" fill="#FF6300" transform="translate(0,0)"/>
<path d="" fill="#FF8D00" transform="translate(0,0)"/>
<path d="" fill="#FFFF00" transform="translate(0,0)"/>
<path d="" fill="#FF7100" transform="translate(0,0)"/>
<path d="" fill="#FFB800" transform="translate(0,0)"/>
<path d="" fill="#FFE900" transform="translate(0,0)"/>
<path d="" fill="#FF7100" transform="translate(0,0)"/>
<path d="" fill="#FF7100" transform="translate(0,0)"/>
<path d="" fill="#FFE200" transform="translate(0,0)"/>
<path d="" fill="#FFE200" transform="translate(0,0)"/>
<path d="" fill="#FFE900" transform="translate(0,0)"/>
<path d="" fill="#FFBF00" transform="translate(0,0)"/>
<path d="" fill="#FFD400" transform="translate(0,0)"/>
<path d="" fill="#FFFF00" transform="translate(0,0)"/>
<path d="" fill="#FF9500" transform="translate(0,0)"/>
<path d="" fill="#FFE900" transform="translate(0,0)"/>
<path d="" fill="#FFBF00" transform="translate(0,0)"/>
<path d="" fill="#FFC600" transform="translate(0,0)"/>
<path d="" fill="#FFE200" transform="translate(0,0)"/>
<path d="" fill="#FFCD00" transform="translate(0,0)"/>
<path d="" fill="#FFCD00" transform="translate(0,0)"/>
<path d="" fill="#FFC600" transform="translate(0,0)"/>
<path d="" fill="#FFC600" transform="translate(0,0)"/>
<path d="" fill="#FFC600" transform="translate(0,0)"/>
<path d="" fill="#FFCD00" transform="translate(0,0)"/>
<path d="" fill="#FFC600" transform="translate(0,0)"/>
<path d="" fill="#FFE200" transform="translate(0,0)"/>
<path d="" fill="#FFCD00" transform="translate(0,0)"/>
<path d="" fill="#FFC600" transform="translate(0,0)"/>
<path d="" fill="#FFC600" transform="translate(0,0)"/>
<path d="" fill="#FFC600" transform="translate(0,0)"/>
<path d="" fill="#FFC600" transform="translate(0,0)"/>
<path d="" fill="#FFC600" transform="translate(0,0)"/>
<path d="" fill="#FFC600" transform="translate(0,0)"/>
<path d="" fill="#FFE200" transform="translate(0,0)"/>
<path d="" fill="#FFC600" transform="translate(0,0)"/>
<path d="" fill="#FFC600" transform="translate(0,0)"/>
<path d="" fill="#FF7100" transform="translate(0,0)"/>
<path d="" fill="#FFE900" transform="translate(0,0)"/>
<path d="" fill="#FFE900" transform="translate(0,0)"/>
<path d="" fill="#FFE200" transform="translate(0,0)"/>
<path d="" fill="#FF7100" transform="translate(0,0)"/>
<path d="" fill="#FFE200" transform="translate(0,0)"/>
<path d="" fill="#FF7100" transform="translate(0,0)"/>
<path d="" fill="#FF8D00" transform="translate(0,0)"/>
<path d="" fill="#FF6300" transform="translate(0,0)"/>
<path d="" fill="#FF6300" transform="translate(0,0)"/>
<path d="" fill="#FF3800" transform="translate(0,0)"/>
<path d="M0 0 C3 1 3 1 3 1 Z " fill="#FF8D00" transform="translate(382,160)"/>
<path d="M0 0 C3 1 3 1 3 1 Z " fill="#FF6300" transform="translate(391,156)"/>
<path d="M0 0 C3 1 3 1 3 1 Z " fill="#FF6300" transform="translate(667,154)"/>
<path d="M0 0 C3 1 3 1 3 1 Z " fill="#FFE200" transform="translate(662,152)"/>
<path d="M0 0 C3 1 3 1 3 1 Z " fill="#FFE200" transform="translate(657,150)"/>
<path d="M0 0 C3 1 3 1 3 1 Z " fill="#FFC600" transform="translate(411,148)"/>
<path d="M0 0 C3 1 3 1 3 1 Z " fill="#FF7100" transform="translate(649,147)"/>
<path d="M0 0 C3 1 3 1 3 1 Z " fill="#FFE200" transform="translate(414,147)"/>
<path d="M0 0 C3 1 3 1 3 1 Z " fill="#FFE200" transform="translate(646,146)"/>
<path d="M0 0 C3 1 3 1 3 1 Z " fill="#FFE900" transform="translate(417,146)"/>
<path d="M0 0 C3 1 3 1 3 1 Z " fill="#FFC600" transform="translate(643,145)"/>
<path d="M0 0 C3 1 3 1 3 1 Z " fill="#FFBF00" transform="translate(420,145)"/>
<path d="M0 0 C3 1 3 1 3 1 Z " fill="#FFC600" transform="translate(640,144)"/>
<path d="M0 0 C3 1 3 1 3 1 Z " fill="#FFBF00" transform="translate(423,144)"/>
<path d="M0 0 C3 1 3 1 3 1 Z " fill="#FFC600" transform="translate(637,143)"/>
<path d="M0 0 C3 1 3 1 3 1 Z " fill="#FFE900" transform="translate(426,143)"/>
<path d="M0 0 C3 1 3 1 3 1 Z " fill="#FFE900" transform="translate(634,142)"/>
<path d="M0 0 C3 1 3 1 3 1 Z " fill="#FFC600" transform="translate(429,142)"/>
<path d="M0 0 C3 1 3 1 3 1 Z " fill="#FF9500" transform="translate(630,141)"/>
<path d="M0 0 C3 1 3 1 3 1 Z " fill="#FFC600" transform="translate(627,140)"/>
<path d="M0 0 C3 1 3 1 3 1 Z " fill="#FFE200" transform="translate(436,140)"/>
<path d="M0 0 C2 1 2 1 2 1 Z " fill="#FFDF00" transform="translate(650,813)"/>
<path d="M0 0 C2 1 2 1 2 1 Z " fill="#FF9F00" transform="translate(653,812)"/>
<path d="M0 0 C2 1 2 1 2 1 Z " fill="#FF9F00" transform="translate(408,811)"/>
<path d="M0 0 C2 1 2 1 2 1 Z " fill="#FFAA00" transform="translate(658,810)"/>
<path d="M0 0 C2 1 2 1 2 1 Z " fill="#FFD400" transform="translate(661,809)"/>
<path d="M0 0 C2 1 2 1 2 1 Z " fill="#FFD400" transform="translate(403,809)"/>
<path d="M0 0 C2 1 2 1 2 1 Z " fill="#FFAA00" transform="translate(663,808)"/>
<path d="M0 0 C2 1 2 1 2 1 Z " fill="#FFD400" transform="translate(666,807)"/>
<path d="M0 0 C2 1 2 1 2 1 Z " fill="#FFD400" transform="translate(398,807)"/>
<path d="M0 0 C2 1 2 1 2 1 Z " fill="#FFD400" transform="translate(668,806)"/>
<path d="M0 0 C2 1 2 1 2 1 Z " fill="#FFDF00" transform="translate(393,805)"/>
<path d="M0 0 C2 1 2 1 2 1 Z " fill="#FFDF00" transform="translate(673,804)"/>
<path d="M0 0 C2 1 2 1 2 1 Z " fill="#FFDF00" transform="translate(391,804)"/>
<path d="M0 0 C2 1 2 1 2 1 Z " fill="#FF9F00" transform="translate(675,803)"/>
<path d="M0 0 C2 1 2 1 2 1 Z " fill="#FF9500" transform="translate(389,803)"/>
<path d="M0 0 C2 1 2 1 2 1 Z " fill="#FFAA00" transform="translate(677,802)"/>
<path d="M0 0 C2 1 2 1 2 1 Z " fill="#FF5500" transform="translate(386,802)"/>
<path d="M0 0 C2 1 2 1 2 1 Z " fill="#FFDF00" transform="translate(384,801)"/>
<path d="M0 0 C2 1 2 1 2 1 Z " fill="#FFDF00" transform="translate(682,800)"/>
<path d="M0 0 C2 1 2 1 2 1 Z " fill="#FF9F00" transform="translate(382,800)"/>
<path d="M0 0 C2 1 2 1 2 1 Z " fill="#FFFF00" transform="translate(684,799)"/>
<path d="M0 0 C2 1 2 1 2 1 Z " fill="#FFBF00" transform="translate(380,799)"/>
<path d="M0 0 C2 1 2 1 2 1 Z " fill="#DFDF00" transform="translate(686,798)"/>
<path d="M0 0 C2 1 2 1 2 1 Z " fill="#FF9500" transform="translate(378,798)"/>
<path d="M0 0 C2 1 2 1 2 1 Z " fill="#FFDF00" transform="translate(688,797)"/>
<path d="M0 0 C2 1 2 1 2 1 Z " fill="#FF9500" transform="translate(376,797)"/>
<path d="M0 0 C2 1 2 1 2 1 Z " fill="#FFDF00" transform="translate(690,796)"/>
<path d="M0 0 C2 1 2 1 2 1 Z " fill="#FFD400" transform="translate(374,796)"/>
<path d="M0 0 C2 1 2 1 2 1 Z " fill="#FFDF00" transform="translate(692,795)"/>
<path d="M0 0 C2 1 2 1 2 1 Z " fill="#FFD400" transform="translate(372,795)"/>
<path d="M0 0 C2 1 2 1 2 1 Z " fill="#FFDF00" transform="translate(694,794)"/>
<path d="M0 0 C2 1 2 1 2 1 Z " fill="#FF9500" transform="translate(370,794)"/>
<path d="M0 0 C2 1 2 1 2 1 Z " fill="#FF5F00" transform="translate(696,793)"/>
<path d="M0 0 C2 1 2 1 2 1 Z " fill="#FF9500" transform="translate(368,793)"/>
<path d="M0 0 C2 1 2 1 2 1 Z " fill="#FFDF00" transform="translate(366,792)"/>
<path d="M0 0 C2 1 2 1 2 1 Z " fill="#7F5500" transform="translate(699,791)"/>
<path d="M0 0 C2 1 2 1 2 1 Z " fill="#FFDF00" transform="translate(364,791)"/>
<path d="M0 0 C2 1 2 1 2 1 Z " fill="#FFBF00" transform="translate(701,790)"/>
<path d="M0 0 C2 1 2 1 2 1 Z " fill="#FF9F00" transform="translate(703,789)"/>
<path d="M0 0 C2 1 2 1 2 1 Z " fill="#FFD400" transform="translate(361,789)"/>
<path d="M0 0 C2 1 2 1 2 1 Z " fill="#FFDF00" transform="translate(705,788)"/>
<path d="M0 0 C2 1 2 1 2 1 Z " fill="#FF9500" transform="translate(359,788)"/>
<path d="M0 0 C2 1 2 1 2 1 Z " fill="#FFDF00" transform="translate(357,787)"/>
<path d="M0 0 C2 1 2 1 2 1 Z " fill="#FFD400" transform="translate(708,786)"/>
<path d="M0 0 C2 1 2 1 2 1 Z " fill="#DF5F00" transform="translate(355,786)"/>
<path d="M0 0 C2 1 2 1 2 1 Z " fill="#FF9500" transform="translate(710,785)"/>
<path d="M0 0 C2 1 2 1 2 1 Z " fill="#FFDF00" transform="translate(712,784)"/>
<path d="M0 0 C2 1 2 1 2 1 Z " fill="#FF9500" transform="translate(352,784)"/>
<path d="M0 0 C2 1 2 1 2 1 Z " fill="#FF9500" transform="translate(715,782)"/>
<path d="M0 0 C2 1 2 1 2 1 Z " fill="#FFD400" transform="translate(349,782)"/>
<path d="M0 0 C2 1 2 1 2 1 Z " fill="#FFDF00" transform="translate(347,781)"/>
<path d="M0 0 C2 1 2 1 2 1 Z " fill="#FFBF00" transform="translate(718,780)"/>
<path d="M0 0 C2 1 2 1 2 1 Z " fill="#FFDF00" transform="translate(720,779)"/>
<path d="M0 0 C2 1 2 1 2 1 Z " fill="#FFBF00" transform="translate(344,779)"/>
<path d="M0 0 C2 1 2 1 2 1 Z " fill="#FF5F00" transform="translate(342,778)"/>
<path d="M0 0 C2 1 2 1 2 1 Z " fill="#FFD400" transform="translate(723,777)"/>
<path d="M0 0 C2 1 2 1 2 1 Z " fill="#FF5F00" transform="translate(339,776)"/>
<path d="M0 0 C2 1 2 1 2 1 Z " fill="#FF9500" transform="translate(726,775)"/>
<path d="M0 0 C2 1 2 1 2 1 Z " fill="#FFDF00" transform="translate(336,774)"/>
<path d="M0 0 C2 1 2 1 2 1 Z " fill="#FFD400" transform="translate(729,773)"/>
<path d="M0 0 C2 1 2 1 2 1 Z " fill="#FFDF00" transform="translate(333,772)"/>
<path d="M0 0 C2 1 2 1 2 1 Z " fill="#FFD400" transform="translate(732,771)"/>
<path d="M0 0 C2 1 2 1 2 1 Z " fill="#FF8000" transform="translate(329,769)"/>
<path d="M0 0 C2 1 2 1 2 1 Z " fill="#FFD400" transform="translate(326,767)"/>
<path d="M0 0 C2 1 2 1 2 1 Z " fill="#FFD400" transform="translate(739,766)"/>
<path d="M0 0 C2 1 2 1 2 1 Z " fill="#FFD400" transform="translate(322,764)"/>
<path d="M0 0 C2 1 2 1 2 1 Z " fill="#FFBF00" transform="translate(743,763)"/>
<path d="M0 0 C2 1 2 1 2 1 Z " fill="#FFD400" transform="translate(318,761)"/>
<path d="M0 0 C2 1 2 1 2 1 Z " fill="#FFD400" transform="translate(747,760)"/>
<path d="M0 0 C2 1 2 1 2 1 Z " fill="#FFD400" transform="translate(757,752)"/>
<path d="" fill="#FFD400" transform="translate(0,0)"/>
<path d="" fill="#FFFF00" transform="translate(0,0)"/>
<path d="" fill="#FFD400" transform="translate(0,0)"/>
<path d="" fill="#FFFF00" transform="translate(0,0)"/>
<path d="" fill="#FFBF00" transform="translate(0,0)"/>
<path d="" fill="#FFD400" transform="translate(0,0)"/>
<path d="" fill="#FF8000" transform="translate(0,0)"/>
<path d="" fill="#FF8000" transform="translate(0,0)"/>
<path d="" fill="#FFFF00" transform="translate(0,0)"/>
<path d="" fill="#FFD400" transform="translate(0,0)"/>
<path d="" fill="#FF9500" transform="translate(0,0)"/>
<path d="" fill="#FF9500" transform="translate(0,0)"/>
<path d="" fill="#FFBF00" transform="translate(0,0)"/>
<path d="" fill="#FFBF00" transform="translate(0,0)"/>
<path d="" fill="#FF8000" transform="translate(0,0)"/>
<path d="" fill="#FFBF00" transform="translate(0,0)"/>
<path d="" fill="#FFBF00" transform="translate(0,0)"/>
<path d="" fill="#FFD400" transform="translate(0,0)"/>
<path d="" fill="#FFDF00" transform="translate(0,0)"/>
<path d="" fill="#FFDF00" transform="translate(0,0)"/>
<path d="" fill="#FFDF00" transform="translate(0,0)"/>
<path d="" fill="#FFBF00" transform="translate(0,0)"/>
<path d="" fill="#FFBF00" transform="translate(0,0)"/>
<path d="" fill="#FFDF00" transform="translate(0,0)"/>
<path d="" fill="#FFDF00" transform="translate(0,0)"/>
<path d="" fill="#FFD400" transform="translate(0,0)"/>
<path d="" fill="#FFBF00" transform="translate(0,0)"/>
<path d="" fill="#FFD400" transform="translate(0,0)"/>
<path d="" fill="#FF5F00" transform="translate(0,0)"/>
<path d="" fill="#FFBF00" transform="translate(0,0)"/>
<path d="" fill="#FFDF00" transform="translate(0,0)"/>
<path d="" fill="#FFDF00" transform="translate(0,0)"/>
<path d="" fill="#FFFF00" transform="translate(0,0)"/>
<path d="" fill="#FFDF00" transform="translate(0,0)"/>
<path d="" fill="#FF5500" transform="translate(0,0)"/>
<path d="" fill="#FF9500" transform="translate(0,0)"/>
<path d="" fill="#DFDF00" transform="translate(0,0)"/>
<path d="" fill="#FF9500" transform="translate(0,0)"/>
<path d="" fill="#FFDF00" transform="translate(0,0)"/>
<path d="" fill="#FFD400" transform="translate(0,0)"/>
<path d="" fill="#FFDF00" transform="translate(0,0)"/>
<path d="" fill="#FF9500" transform="translate(0,0)"/>
<path d="" fill="#FF5F00" transform="translate(0,0)"/>
<path d="" fill="#FFBF00" transform="translate(0,0)"/>
<path d="" fill="#FFD400" transform="translate(0,0)"/>
<path d="" fill="#FF9500" transform="translate(0,0)"/>
<path d="" fill="#FF5500" transform="translate(0,0)"/>
<path d="" fill="#FF9F00" transform="translate(0,0)"/>
<path d="" fill="#FF7F00" transform="translate(0,0)"/>
<path d="" fill="#FF9500" transform="translate(0,0)"/>
<path d="" fill="#DFDF00" transform="translate(0,0)"/>
<path d="" fill="#FFD400" transform="translate(0,0)"/>
<path d="" fill="#FFDF00" transform="translate(0,0)"/>
<path d="" fill="#FFD400" transform="translate(0,0)"/>
<path d="" fill="#FFD400" transform="translate(0,0)"/>
<path d="" fill="#FF9F00" transform="translate(0,0)"/>
<path d="" fill="#FFAA00" transform="translate(0,0)"/>
<path d="" fill="#FFDF00" transform="translate(0,0)"/>
<path d="" fill="#FF9500" transform="translate(0,0)"/>
<path d="" fill="#FFD400" transform="translate(0,0)"/>
<path d="" fill="#FFD400" transform="translate(0,0)"/>
<path d="" fill="#FFD400" transform="translate(0,0)"/>
<path d="" fill="#FF9F00" transform="translate(0,0)"/>
<path d="" fill="#FFAA00" transform="translate(0,0)"/>
<path d="" fill="#FFFF00" transform="translate(0,0)"/>
<path d="" fill="#FFD400" transform="translate(0,0)"/>
<path d="" fill="#FF9F00" transform="translate(0,0)"/>
<path d="" fill="#FFDF00" transform="translate(0,0)"/>
<path d="" fill="#FFAA00" transform="translate(0,0)"/>
<path d="" fill="#FFDF00" transform="translate(0,0)"/>
<path d="" fill="#FF9F00" transform="translate(0,0)"/>
<path d="" fill="#FF9F00" transform="translate(0,0)"/>
<path d="" fill="#FFDF00" transform="translate(0,0)"/>
<path d="" fill="#FF9500" transform="translate(0,0)"/>
<path d="" fill="#FFDF00" transform="translate(0,0)"/>
<path d="" fill="#FFD400" transform="translate(0,0)"/>
<path d="" fill="#FFFF00" transform="translate(0,0)"/>
<path d="" fill="#FFD400" transform="translate(0,0)"/>
<path d="" fill="#FFD400" transform="translate(0,0)"/>
<path d="" fill="#FF9500" transform="translate(0,0)"/>
<path d="" fill="#FFDF00" transform="translate(0,0)"/>
<path d="" fill="#FFD400" transform="translate(0,0)"/>
<path d="" fill="#FFDF00" transform="translate(0,0)"/>
<path d="" fill="#FF9500" transform="translate(0,0)"/>
<path d="" fill="#FF9F00" transform="translate(0,0)"/>
<path d="" fill="#FFD400" transform="translate(0,0)"/>
<path d="" fill="#FFD400" transform="translate(0,0)"/>
<path d="" fill="#FFAA00" transform="translate(0,0)"/>
<path d="" fill="#FFDF00" transform="translate(0,0)"/>
<path d="" fill="#FFD400" transform="translate(0,0)"/>
<path d="" fill="#DFDF00" transform="translate(0,0)"/>
<path d="" fill="#FF9500" transform="translate(0,0)"/>
<path d="" fill="#FFDF00" transform="translate(0,0)"/>
<path d="" fill="#FFD400" transform="translate(0,0)"/>
<path d="" fill="#FFD400" transform="translate(0,0)"/>
<path d="" fill="#FF9500" transform="translate(0,0)"/>
<path d="" fill="#FFD400" transform="translate(0,0)"/>
<path d="" fill="#FFFF00" transform="translate(0,0)"/>
<path d="" fill="#FF9500" transform="translate(0,0)"/>
<path d="" fill="#FFD400" transform="translate(0,0)"/>
<path d="" fill="#FFDF00" transform="translate(0,0)"/>
<path d="" fill="#FF9500" transform="translate(0,0)"/>
<path d="" fill="#FFDF00" transform="translate(0,0)"/>
<path d="" fill="#FF9500" transform="translate(0,0)"/>
<path d="" fill="#FFDF00" transform="translate(0,0)"/>
<path d="" fill="#FFD400" transform="translate(0,0)"/>
<path d="" fill="#FFD400" transform="translate(0,0)"/>
<path d="" fill="#FFDF00" transform="translate(0,0)"/>
<path d="" fill="#FFFF00" transform="translate(0,0)"/>
<path d="" fill="#FFDF00" transform="translate(0,0)"/>
<path d="" fill="#FF5500" transform="translate(0,0)"/>
<path d="" fill="#FF9500" transform="translate(0,0)"/>
<path d="" fill="#FFBF00" transform="translate(0,0)"/>
<path d="" fill="#FFDF00" transform="translate(0,0)"/>
<path d="" fill="#FFDF00" transform="translate(0,0)"/>
<path d="" fill="#FFBF00" transform="translate(0,0)"/>
<path d="" fill="#FFBF00" transform="translate(0,0)"/>
<path d="" fill="#BFBF00" transform="translate(0,0)"/>
<path d="" fill="#FF5F00" transform="translate(0,0)"/>
<path d="" fill="#FF5F00" transform="translate(0,0)"/>
<path d="" fill="#FFDF00" transform="translate(0,0)"/>
<path d="" fill="#FF5F00" transform="translate(0,0)"/>
<path d="" fill="#FFDF00" transform="translate(0,0)"/>
<path d="" fill="#FFBF00" transform="translate(0,0)"/>
<path d="" fill="#FFFF00" transform="translate(0,0)"/>
<path d="" fill="#FFFF00" transform="translate(0,0)"/>
<path d="" fill="#FFD400" transform="translate(0,0)"/>
<path d="" fill="#DFDF00" transform="translate(0,0)"/>
<path d="" fill="#FFBF00" transform="translate(0,0)"/>
<path d="" fill="#FFD400" transform="translate(0,0)"/>
<path d="" fill="#FFD400" transform="translate(0,0)"/>
<path d="" fill="#FFD400" transform="translate(0,0)"/>
<path d="M0 0 C2 1 2 1 2 1 Z " fill="#FFD400" transform="translate(307,208)"/>
<path d="M0 0 C2 1 2 1 2 1 Z " fill="#FFD400" transform="translate(753,205)"/>
<path d="M0 0 C2 1 2 1 2 1 Z " fill="#FFFF00" transform="translate(312,204)"/>
<path d="M0 0 C2 1 2 1 2 1 Z " fill="#FFD400" transform="translate(748,201)"/>
<path d="M0 0 C2 1 2 1 2 1 Z " fill="#FFD400" transform="translate(317,200)"/>
<path d="M0 0 C2 1 2 1 2 1 Z " fill="#FFFF00" transform="translate(744,198)"/>
<path d="M0 0 C2 1 2 1 2 1 Z " fill="#FFD400" transform="translate(321,197)"/>
<path d="M0 0 C2 1 2 1 2 1 Z " fill="#FFD400" transform="translate(740,195)"/>
<path d="M0 0 C2 1 2 1 2 1 Z " fill="#FFDF00" transform="translate(325,194)"/>
<path d="M0 0 C2 1 2 1 2 1 Z " fill="#FF8000" transform="translate(328,192)"/>
<path d="M0 0 C2 1 2 1 2 1 Z " fill="#FFD400" transform="translate(733,190)"/>
<path d="M0 0 C2 1 2 1 2 1 Z " fill="#FFDF00" transform="translate(332,189)"/>
<path d="M0 0 C2 1 2 1 2 1 Z " fill="#FFBF00" transform="translate(730,188)"/>
<path d="M0 0 C2 1 2 1 2 1 Z " fill="#FFD400" transform="translate(335,187)"/>
<path d="M0 0 C2 1 2 1 2 1 Z " fill="#FF9500" transform="translate(727,186)"/>
<path d="M0 0 C2 1 2 1 2 1 Z " fill="#FFDF00" transform="translate(338,185)"/>
<path d="M0 0 C2 1 2 1 2 1 Z " fill="#FFBF00" transform="translate(724,184)"/>
<path d="M0 0 C2 1 2 1 2 1 Z " fill="#FFD400" transform="translate(341,183)"/>
<path d="M0 0 C2 1 2 1 2 1 Z " fill="#FFD400" transform="translate(721,182)"/>
<path d="M0 0 C2 1 2 1 2 1 Z " fill="#FF5F00" transform="translate(344,181)"/>
<path d="M0 0 C2 1 2 1 2 1 Z " fill="#FFDF00" transform="translate(718,180)"/>
<path d="M0 0 C2 1 2 1 2 1 Z " fill="#FF8000" transform="translate(346,180)"/>
<path d="M0 0 C2 1 2 1 2 1 Z " fill="#FFFF00" transform="translate(716,179)"/>
<path d="M0 0 C2 1 2 1 2 1 Z " fill="#FF9500" transform="translate(349,178)"/>
<path d="M0 0 C2 1 2 1 2 1 Z " fill="#FFDF00" transform="translate(713,177)"/>
<path d="M0 0 C2 1 2 1 2 1 Z " fill="#FFBF00" transform="translate(711,176)"/>
<path d="M0 0 C2 1 2 1 2 1 Z " fill="#FF5F00" transform="translate(352,176)"/>
<path d="M0 0 C2 1 2 1 2 1 Z " fill="#FF9F00" transform="translate(354,175)"/>
<path d="M0 0 C2 1 2 1 2 1 Z " fill="#FFDF00" transform="translate(708,174)"/>
<path d="M0 0 C2 1 2 1 2 1 Z " fill="#FFD400" transform="translate(356,174)"/>
<path d="M0 0 C2 1 2 1 2 1 Z " fill="#FF9500" transform="translate(706,173)"/>
<path d="M0 0 C2 1 2 1 2 1 Z " fill="#FF9500" transform="translate(704,172)"/>
<path d="M0 0 C2 1 2 1 2 1 Z " fill="#FFDF00" transform="translate(359,172)"/>
<path d="M0 0 C2 1 2 1 2 1 Z " fill="#FF9F00" transform="translate(361,171)"/>
<path d="M0 0 C2 1 2 1 2 1 Z " fill="#FFDF00" transform="translate(701,170)"/>
<path d="M0 0 C2 1 2 1 2 1 Z " fill="#FFD400" transform="translate(363,170)"/>
<path d="M0 0 C2 1 2 1 2 1 Z " fill="#FFDF00" transform="translate(699,169)"/>
<path d="M0 0 C2 1 2 1 2 1 Z " fill="#FFD400" transform="translate(365,169)"/>
<path d="M0 0 C2 1 2 1 2 1 Z " fill="#FF9500" transform="translate(697,168)"/>
<path d="M0 0 C2 1 2 1 2 1 Z " fill="#FF9500" transform="translate(695,167)"/>
<path d="M0 0 C2 1 2 1 2 1 Z " fill="#FFD400" transform="translate(693,166)"/>
<path d="M0 0 C2 1 2 1 2 1 Z " fill="#FF5F00" transform="translate(370,166)"/>
<path d="M0 0 C2 1 2 1 2 1 Z " fill="#FFD400" transform="translate(691,165)"/>
<path d="M0 0 C2 1 2 1 2 1 Z " fill="#FFDF00" transform="translate(372,165)"/>
<path d="M0 0 C2 1 2 1 2 1 Z " fill="#FFD400" transform="translate(689,164)"/>
<path d="M0 0 C2 1 2 1 2 1 Z " fill="#FFDF00" transform="translate(374,164)"/>
<path d="M0 0 C2 1 2 1 2 1 Z " fill="#FFD400" transform="translate(687,163)"/>
<path d="M0 0 C2 1 2 1 2 1 Z " fill="#FFDF00" transform="translate(376,163)"/>
<path d="M0 0 C2 1 2 1 2 1 Z " fill="#FFD400" transform="translate(685,162)"/>
<path d="M0 0 C2 1 2 1 2 1 Z " fill="#FFDF00" transform="translate(378,162)"/>
<path d="M0 0 C2 1 2 1 2 1 Z " fill="#FFDF00" transform="translate(683,161)"/>
<path d="M0 0 C2 1 2 1 2 1 Z " fill="#FF5500" transform="translate(380,161)"/>
<path d="M0 0 C2 1 2 1 2 1 Z " fill="#FF9500" transform="translate(681,160)"/>
<path d="M0 0 C2 1 2 1 2 1 Z " fill="#FFFF00" transform="translate(679,159)"/>
<path d="M0 0 C2 1 2 1 2 1 Z " fill="#FFAA00" transform="translate(385,159)"/>
<path d="M0 0 C2 1 2 1 2 1 Z " fill="#FFD400" transform="translate(677,158)"/>
<path d="M0 0 C2 1 2 1 2 1 Z " fill="#FFD400" transform="translate(387,158)"/>
<path d="M0 0 C2 1 2 1 2 1 Z " fill="#FFD400" transform="translate(674,157)"/>
<path d="M0 0 C2 1 2 1 2 1 Z " fill="#FF9F00" transform="translate(389,157)"/>
<path d="M0 0 C2 1 2 1 2 1 Z " fill="#FFD400" transform="translate(672,156)"/>
<path d="M0 0 C2 1 2 1 2 1 Z " fill="#FFDF00" transform="translate(670,155)"/>
<path d="M0 0 C2 1 2 1 2 1 Z " fill="#FFDF00" transform="translate(394,155)"/>
<path d="M0 0 C2 1 2 1 2 1 Z " fill="#FFDF00" transform="translate(396,154)"/>
<path d="M0 0 C2 1 2 1 2 1 Z " fill="#FF9F00" transform="translate(665,153)"/>
<path d="M0 0 C2 1 2 1 2 1 Z " fill="#FFD400" transform="translate(399,153)"/>
<path d="M0 0 C2 1 2 1 2 1 Z " fill="#FF9F00" transform="translate(401,152)"/>
<path d="M0 0 C2 1 2 1 2 1 Z " fill="#FFBF00" transform="translate(660,151)"/>
<path d="M0 0 C2 1 2 1 2 1 Z " fill="#FFAA00" transform="translate(404,151)"/>
<path d="M0 0 C2 1 2 1 2 1 Z " fill="#FF9F00" transform="translate(406,150)"/>
<path d="M0 0 C2 1 2 1 2 1 Z " fill="#FFDF00" transform="translate(655,149)"/>
<path d="M0 0 C2 1 2 1 2 1 Z " fill="#FFD400" transform="translate(409,149)"/>
<path d="M0 0 C2 1 2 1 2 1 Z " fill="#FFDF00" transform="translate(652,148)"/>
<path d="" fill="#FFAA00" transform="translate(0,0)"/>
<path d="" fill="#FFAA00" transform="translate(0,0)"/>
<path d="" fill="#FFAA00" transform="translate(0,0)"/>
<path d="" fill="#FFAA00" transform="translate(0,0)"/>
<path d="" fill="#FFAA00" transform="translate(0,0)"/>
<path d="" fill="#FFBF00" transform="translate(0,0)"/>
<path d="" fill="#FFBF00" transform="translate(0,0)"/>
<path d="" fill="#FFBF00" transform="translate(0,0)"/>
<path d="" fill="#FFAA00" transform="translate(0,0)"/>
<path d="" fill="#FFFF00" transform="translate(0,0)"/>
<path d="" fill="#FFBF00" transform="translate(0,0)"/>
<path d="" fill="#FFAA00" transform="translate(0,0)"/>
<path d="" fill="#FFBF00" transform="translate(0,0)"/>
<path d="" fill="#FFAA00" transform="translate(0,0)"/>
<path d="" fill="#FFBF00" transform="translate(0,0)"/>
<path d="" fill="#FFFF00" transform="translate(0,0)"/>
<path d="" fill="#FFAA00" transform="translate(0,0)"/>
<path d="" fill="#FFBF00" transform="translate(0,0)"/>
<path d="" fill="#FFBF00" transform="translate(0,0)"/>
<path d="" fill="#FFBF00" transform="translate(0,0)"/>
<path d="" fill="#FFAA00" transform="translate(0,0)"/>
<path d="" fill="#FFAA00" transform="translate(0,0)"/>
<path d="" fill="#FFBF00" transform="translate(0,0)"/>
<path d="" fill="#FFBF00" transform="translate(0,0)"/>
<path d="" fill="#FFAA00" transform="translate(0,0)"/>
<path d="" fill="#FFAA00" transform="translate(0,0)"/>
<path d="" fill="#FFBF00" transform="translate(0,0)"/>
<path d="" fill="#FFBF00" transform="translate(0,0)"/>
<path d="" fill="#FFAA00" transform="translate(0,0)"/>
<path d="" fill="#FFAA00" transform="translate(0,0)"/>
<path d="" fill="#FFBF00" transform="translate(0,0)"/>
<path d="" fill="#FFBF00" transform="translate(0,0)"/>
<path d="" fill="#FFAA00" transform="translate(0,0)"/>
<path d="" fill="#FFAA00" transform="translate(0,0)"/>
<path d="" fill="#FFBF00" transform="translate(0,0)"/>
<path d="" fill="#FFBF00" transform="translate(0,0)"/>
<path d="" fill="#FFBF00" transform="translate(0,0)"/>
<path d="" fill="#FFAA00" transform="translate(0,0)"/>
<path d="" fill="#FFFF00" transform="translate(0,0)"/>
<path d="" fill="#FFBF00" transform="translate(0,0)"/>
<path d="" fill="#FFAA00" transform="translate(0,0)"/>
<path d="" fill="#FFBF00" transform="translate(0,0)"/>
<path d="" fill="#FFBF00" transform="translate(0,0)"/>
<path d="" fill="#FFBF00" transform="translate(0,0)"/>
<path d="" fill="#FFFF00" transform="translate(0,0)"/>
<path d="" fill="#FFAA00" transform="translate(0,0)"/>
<path d="" fill="#FFFF00" transform="translate(0,0)"/>
<path d="" fill="#FFBF00" transform="translate(0,0)"/>
<path d="" fill="#FFAA00" transform="translate(0,0)"/>
<path d="" fill="#FFBF00" transform="translate(0,0)"/>
<path d="" fill="#FFAA00" transform="translate(0,0)"/>
<path d="" fill="#FFBF00" transform="translate(0,0)"/>
<path d="" fill="#FFBF00" transform="translate(0,0)"/>
<path d="" fill="#FFBF00" transform="translate(0,0)"/>
<path d="" fill="#FFBF00" transform="translate(0,0)"/>
<path d="" fill="#FFBF00" transform="translate(0,0)"/>
<path d="" fill="#FFBF00" transform="translate(0,0)"/>
<path d="" fill="#FF8000" transform="translate(0,0)"/>
<path d="" fill="#FFFF00" transform="translate(0,0)"/>
<path d="" fill="#FFAA00" transform="translate(0,0)"/>
<path d="" fill="#FFAA00" transform="translate(0,0)"/>
<path d="" fill="#FFAA00" transform="translate(0,0)"/>
<path d="" fill="#FF8000" transform="translate(0,0)"/>
<path d="" fill="#FFAA00" transform="translate(0,0)"/>
<path d="" fill="#FF8000" transform="translate(0,0)"/>
<path d="" fill="#FFAA00" transform="translate(0,0)"/>
<path d="" fill="#FF8000" transform="translate(0,0)"/>
<path d="" fill="#FFAA00" transform="translate(0,0)"/>
<path d="" fill="#FF8000" transform="translate(0,0)"/>
<path d="" fill="#FFAA00" transform="translate(0,0)"/>
<path d="" fill="#FFFF00" transform="translate(0,0)"/>
<path d="" fill="#FFAA00" transform="translate(0,0)"/>
<path d="" fill="#FFFF00" transform="translate(0,0)"/>
<path d="" fill="#FFAA00" transform="translate(0,0)"/>
<path d="" fill="#FF8000" transform="translate(0,0)"/>
<path d="" fill="#FFAA00" transform="translate(0,0)"/>
<path d="" fill="#FF8000" transform="translate(0,0)"/>
<path d="" fill="#FFAA00" transform="translate(0,0)"/>
<path d="" fill="#FF8000" transform="translate(0,0)"/>
<path d="" fill="#FFAA00" transform="translate(0,0)"/>
<path d="" fill="#FFAA00" transform="translate(0,0)"/>
<path d="" fill="#FFAA00" transform="translate(0,0)"/>
<path d="" fill="#FFAA00" transform="translate(0,0)"/>
<path d="" fill="#FFFF00" transform="translate(0,0)"/>
<path d="" fill="#FFFF00" transform="translate(0,0)"/>
<path d="" fill="#FFBF00" transform="translate(0,0)"/>
<path d="" fill="#FFBF00" transform="translate(0,0)"/>
<path d="" fill="#FFBF00" transform="translate(0,0)"/>
<path d="" fill="#FFBF00" transform="translate(0,0)"/>
<path d="" fill="#FFAA00" transform="translate(0,0)"/>
<path d="" fill="#FFBF00" transform="translate(0,0)"/>
<path d="" fill="#FFAA00" transform="translate(0,0)"/>
<path d="" fill="#FFBF00" transform="translate(0,0)"/>
<path d="" fill="#FFFF00" transform="translate(0,0)"/>
<path d="" fill="#FFBF00" transform="translate(0,0)"/>
<path d="" fill="#FFFF00" transform="translate(0,0)"/>
<path d="" fill="#FFAA00" transform="translate(0,0)"/>
<path d="" fill="#FF8000" transform="translate(0,0)"/>
<path d="" fill="#FFBF00" transform="translate(0,0)"/>
<path d="" fill="#FFBF00" transform="translate(0,0)"/>
<path d="" fill="#FFAA00" transform="translate(0,0)"/>
<path d="" fill="#FFBF00" transform="translate(0,0)"/>
<path d="" fill="#FFAA00" transform="translate(0,0)"/>
<path d="" fill="#FFBF00" transform="translate(0,0)"/>
<path d="" fill="#FFAA00" transform="translate(0,0)"/>
<path d="" fill="#FFFF00" transform="translate(0,0)"/>
<path d="" fill="#FFBF00" transform="translate(0,0)"/>
<path d="" fill="#FFAA00" transform="translate(0,0)"/>
<path d="" fill="#FFBF00" transform="translate(0,0)"/>
<path d="" fill="#FF8000" transform="translate(0,0)"/>
<path d="" fill="#FFBF00" transform="translate(0,0)"/>
<path d="" fill="#FFAA00" transform="translate(0,0)"/>
<path d="" fill="#FFBF00" transform="translate(0,0)"/>
<path d="" fill="#FFAA00" transform="translate(0,0)"/>
<path d="" fill="#FFBF00" transform="translate(0,0)"/>
<path d="" fill="#FFBF00" transform="translate(0,0)"/>
<path d="" fill="#FFBF00" transform="translate(0,0)"/>
<path d="" fill="#BFBF00" transform="translate(0,0)"/>
<path d="" fill="#FFBF00" transform="translate(0,0)"/>
<path d="" fill="#FFFF00" transform="translate(0,0)"/>
<path d="" fill="#FFAA00" transform="translate(0,0)"/>
<path d="" fill="#FFBF00" transform="translate(0,0)"/>
<path d="" fill="#FFBF00" transform="translate(0,0)"/>
<path d="" fill="#FFAA00" transform="translate(0,0)"/>
<path d="" fill="#FFBF00" transform="translate(0,0)"/>
<path d="" fill="#FFAA00" transform="translate(0,0)"/>
<path d="" fill="#FFAA00" transform="translate(0,0)"/>
<path d="" fill="#FFFF00" transform="translate(0,0)"/>
<path d="" fill="#FFFF00" transform="translate(0,0)"/>
<path d="" fill="#FFBF00" transform="translate(0,0)"/>
<path d="" fill="#FFBF00" transform="translate(0,0)"/>
<path d="" fill="#FFBF00" transform="translate(0,0)"/>
<path d="" fill="#FFBF00" transform="translate(0,0)"/>
<path d="" fill="#FFBF00" transform="translate(0,0)"/>
<path d="" fill="#BFBF00" transform="translate(0,0)"/>
<path d="" fill="#FFAA00" transform="translate(0,0)"/>
<path d="" fill="#FFAA00" transform="translate(0,0)"/>
<path d="" fill="#FFBF00" transform="translate(0,0)"/>
<path d="" fill="#FFAA00" transform="translate(0,0)"/>
<path d="" fill="#FFBF00" transform="translate(0,0)"/>
<path d="" fill="#FFAA00" transform="translate(0,0)"/>
<path d="" fill="#FFAA00" transform="translate(0,0)"/>
<path d="" fill="#FFAA00" transform="translate(0,0)"/>
<path d="" fill="#FFAA00" transform="translate(0,0)"/>
<path d="" fill="#FFAA00" transform="translate(0,0)"/>
<path d="" fill="#FFAA00" transform="translate(0,0)"/>
<path d="" fill="#FFBF00" transform="translate(0,0)"/>
<path d="" fill="#FFBF00" transform="translate(0,0)"/>
<path d="" fill="#FFAA00" transform="translate(0,0)"/>
<path d="" fill="#FFBF00" transform="translate(0,0)"/>
<path d="" fill="#FFAA00" transform="translate(0,0)"/>
<path d="" fill="#FFAA00" transform="translate(0,0)"/>
<path d="" fill="#FFFF00" transform="translate(0,0)"/>
<path d="" fill="#FFBF00" transform="translate(0,0)"/>
<path d="" fill="#FFAA00" transform="translate(0,0)"/>
<path d="" fill="#FFAA00" transform="translate(0,0)"/>
<path d="" fill="#FFAA00" transform="translate(0,0)"/>
<path d="" fill="#FFFF00" transform="translate(0,0)"/>
<path d="" fill="#FFAA00" transform="translate(0,0)"/>
<path d="" fill="#FFBF00" transform="translate(0,0)"/>
<path d="" fill="#FFBF00" transform="translate(0,0)"/>
<path d="" fill="#FFBF00" transform="translate(0,0)"/>
<path d="" fill="#FFBF00" transform="translate(0,0)"/>
<path d="" fill="#FFAA00" transform="translate(0,0)"/>
<path d="" fill="#FFAA00" transform="translate(0,0)"/>
<path d="" fill="#FFBF00" transform="translate(0,0)"/>
<path d="" fill="#FFBF00" transform="translate(0,0)"/>
<path d="" fill="#FFFF00" transform="translate(0,0)"/>
<path d="" fill="#FFBF00" transform="translate(0,0)"/>
<path d="" fill="#FFAA00" transform="translate(0,0)"/>
<path d="" fill="#FFBF00" transform="translate(0,0)"/>
<path d="" fill="#FFAA00" transform="translate(0,0)"/>
<path d="" fill="#FFAA00" transform="translate(0,0)"/>
<path d="" fill="#FFBF00" transform="translate(0,0)"/>
<path d="" fill="#FFBF00" transform="translate(0,0)"/>
<path d="" fill="#FFFF00" transform="translate(0,0)"/>
<path d="" fill="#FFBF00" transform="translate(0,0)"/>
<path d="" fill="#FFAA00" transform="translate(0,0)"/>
<path d="" fill="#FFBF00" transform="translate(0,0)"/>
<path d="" fill="#FFBF00" transform="translate(0,0)"/>
<path d="" fill="#FFBF00" transform="translate(0,0)"/>
<path d="" fill="#FFAA00" transform="translate(0,0)"/>
<path d="" fill="#FF8000" transform="translate(0,0)"/>
<path d="" fill="#BFBF00" transform="translate(0,0)"/>
<path d="" fill="#FFAA00" transform="translate(0,0)"/>
<path d="" fill="#FFBF00" transform="translate(0,0)"/>
<path d="" fill="#FFBF00" transform="translate(0,0)"/>
<path d="" fill="#FFBF00" transform="translate(0,0)"/>
<path d="" fill="#FFBF00" transform="translate(0,0)"/>
<path d="" fill="#FFBF00" transform="translate(0,0)"/>
<path d="" fill="#FF8000" transform="translate(0,0)"/>
<path d="" fill="#FFAA00" transform="translate(0,0)"/>
<path d="" fill="#FFAA00" transform="translate(0,0)"/>
<path d="" fill="#FFFF00" transform="translate(0,0)"/>
<path d="" fill="#FFBF00" transform="translate(0,0)"/>
<path d="" fill="#FFAA00" transform="translate(0,0)"/>
<path d="" fill="#FFBF00" transform="translate(0,0)"/>
<path d="" fill="#FFAA00" transform="translate(0,0)"/>
<path d="" fill="#FFBF00" transform="translate(0,0)"/>
<path d="" fill="#FFBF00" transform="translate(0,0)"/>
<path d="" fill="#FFBF00" transform="translate(0,0)"/>
<path d="" fill="#FFBF00" transform="translate(0,0)"/>
<path d="" fill="#FFBF00" transform="translate(0,0)"/>
<path d="" fill="#FFBF00" transform="translate(0,0)"/>
<path d="" fill="#FFBF00" transform="translate(0,0)"/>
<path d="" fill="#FFBF00" transform="translate(0,0)"/>
<path d="" fill="#FFBF00" transform="translate(0,0)"/>
<path d="" fill="#FFBF00" transform="translate(0,0)"/>
<path d="" fill="#FFBF00" transform="translate(0,0)"/>
<path d="" fill="#FF8000" transform="translate(0,0)"/>
<path d="" fill="#BFBF00" transform="translate(0,0)"/>
<path d="" fill="#FF8000" transform="translate(0,0)"/>
<path d="" fill="#BFBF00" transform="translate(0,0)"/>
<path d="" fill="#FFFF00" transform="translate(0,0)"/>
<path d="" fill="#FFAA00" transform="translate(0,0)"/>
<path d="" fill="#FFFF00" transform="translate(0,0)"/>
<path d="" fill="#FFAA00" transform="translate(0,0)"/>
<path d="" fill="#FF8000" transform="translate(0,0)"/>
<path d="" fill="#FFAA00" transform="translate(0,0)"/>
<path d="" fill="#FF8000" transform="translate(0,0)"/>
<path d="" fill="#FFBF00" transform="translate(0,0)"/>
<path d="" fill="#FF8000" transform="translate(0,0)"/>
<path d="" fill="#FFBF00" transform="translate(0,0)"/>
<path d="" fill="#FF8000" transform="translate(0,0)"/>
<path d="" fill="#FFBF00" transform="translate(0,0)"/>
<path d="" fill="#FF8000" transform="translate(0,0)"/>
<path d="" fill="#FFBF00" transform="translate(0,0)"/>
<path d="" fill="#FFBF00" transform="translate(0,0)"/>
<path d="" fill="#FFBF00" transform="translate(0,0)"/>
<path d="" fill="#FFBF00" transform="translate(0,0)"/>
<path d="" fill="#FFBF00" transform="translate(0,0)"/>
<path d="" fill="#FFBF00" transform="translate(0,0)"/>
<path d="" fill="#FFAA00" transform="translate(0,0)"/>
<path d="" fill="#FFBF00" transform="translate(0,0)"/>
<path d="" fill="#FFAA00" transform="translate(0,0)"/>
<path d="" fill="#FFBF00" transform="translate(0,0)"/>
<path d="" fill="#FFFF00" transform="translate(0,0)"/>
<path d="" fill="#FFBF00" transform="translate(0,0)"/>
<path d="" fill="#FF8000" transform="translate(0,0)"/>
<path d="" fill="#FFAA00" transform="translate(0,0)"/>
<path d="" fill="#FFAA00" transform="translate(0,0)"/>
<path d="" fill="#FF8000" transform="translate(0,0)"/>
<path d="" fill="#FFBF00" transform="translate(0,0)"/>
<path d="" fill="#FFBF00" transform="translate(0,0)"/>
<path d="" fill="#FFAA00" transform="translate(0,0)"/>
<path d="" fill="#FFBF00" transform="translate(0,0)"/>
<path d="" fill="#FFFF00" transform="translate(0,0)"/>
<path d="" fill="#FFBF00" transform="translate(0,0)"/>
<path d="" fill="#FFAA00" transform="translate(0,0)"/>
<path d="" fill="#FF8000" transform="translate(0,0)"/>
<path d="" fill="#FFBF00" transform="translate(0,0)"/>
<path d="" fill="#FFBF00" transform="translate(0,0)"/>
<path d="" fill="#FFBF00" transform="translate(0,0)"/>
<path d="" fill="#FFFF00" transform="translate(0,0)"/>
<path d="" fill="#FFBF00" transform="translate(0,0)"/>
<path d="" fill="#FFAA00" transform="translate(0,0)"/>
<path d="" fill="#FFBF00" transform="translate(0,0)"/>
<path d="" fill="#FFAA00" transform="translate(0,0)"/>
<path d="" fill="#FFBF00" transform="translate(0,0)"/>
<path d="" fill="#FFFF00" transform="translate(0,0)"/>
<path d="" fill="#FFBF00" transform="translate(0,0)"/>
<path d="" fill="#FFFF00" transform="translate(0,0)"/>
<path d="" fill="#FFBF00" transform="translate(0,0)"/>
<path d="" fill="#FFAA00" transform="translate(0,0)"/>
<path d="" fill="#FFBF00" transform="translate(0,0)"/>
<path d="" fill="#FFAA00" transform="translate(0,0)"/>
<path d="" fill="#FFBF00" transform="translate(0,0)"/>
<path d="" fill="#FFAA00" transform="translate(0,0)"/>
<path d="" fill="#FFBF00" transform="translate(0,0)"/>
<path d="" fill="#FFAA00" transform="translate(0,0)"/>
<path d="" fill="#FFBF00" transform="translate(0,0)"/>
<path d="" fill="#FFBF00" transform="translate(0,0)"/>
<path d="" fill="#FFAA00" transform="translate(0,0)"/>
<path d="" fill="#FFBF00" transform="translate(0,0)"/>
<path d="" fill="#FFAA00" transform="translate(0,0)"/>
<path d="" fill="#FFAA00" transform="translate(0,0)"/>
<path d="" fill="#FFAA00" transform="translate(0,0)"/>
<path d="" fill="#FFBF00" transform="translate(0,0)"/>
<path d="" fill="#FFAA00" transform="translate(0,0)"/>
<path d="" fill="#FFBF00" transform="translate(0,0)"/>
<path d="" fill="#FFAA00" transform="translate(0,0)"/>
<path d="" fill="#FFBF00" transform="translate(0,0)"/>
<path d="" fill="#FFAA00" transform="translate(0,0)"/>
<path d="" fill="#FFAA00" transform="translate(0,0)"/>
<path d="" fill="#FFBF00" transform="translate(0,0)"/>
<path d="" fill="#FFBF00" transform="translate(0,0)"/>
<path d="" fill="#FFAA00" transform="translate(0,0)"/>
<path d="" fill="#FFAA00" transform="translate(0,0)"/>
<path d="" fill="#FFAA00" transform="translate(0,0)"/>
<path d="" fill="#FFAA00" transform="translate(0,0)"/>
<path d="" fill="#FFAA00" transform="translate(0,0)"/>
<path d="" fill="#FFBF00" transform="translate(0,0)"/>
</svg>
